<?xml version="1.0" standalone="no"?>
<!DOCTYPE svg PUBLIC "-//W3C//DTD SVG 20010904//EN"
 "http://www.w3.org/TR/2001/REC-SVG-20010904/DTD/svg10.dtd">
<svg version="1.0" xmlns="http://www.w3.org/2000/svg"
 width="460.000000pt" height="460.000000pt" viewBox="0 0 460.000000 460.000000"
 preserveAspectRatio="xMidYMid meet">
<metadata>
Created by potrace 1.14, written by Peter Selinger 2001-2017
</metadata>
<g transform="translate(0.000000,460.000000) scale(0.100000,-0.100000)"
fill="#000000" stroke="none">
<path d="M0 4579 c0 -15 4 -19 15 -15 51 21 51 21 37 4 -11 -14 -10 -17 5 -21
10 -3 1 -5 -19 -6 l-38 -1 0 -61 c0 -56 2 -60 20 -54 15 5 18 3 14 -9 -3 -8
-11 -17 -18 -19 -10 -4 -13 -55 -12 -224 l1 -218 26 -3 c16 -2 31 -12 37 -28
8 -16 19 -24 34 -23 22 1 22 1 -2 9 -14 4 -19 8 -11 9 9 1 6 7 -8 19 -15 12
-18 21 -11 32 8 12 10 12 16 -3 3 -9 11 -17 17 -17 7 0 7 4 -1 12 -18 18 -14
52 7 65 16 10 22 9 33 -4 11 -15 10 -16 -9 -11 -20 5 -23 2 -23 -22 0 -15 7
-33 15 -40 9 -7 13 -21 10 -31 -4 -11 -2 -19 4 -19 6 0 11 8 11 18 0 22 36 27
44 6 4 -9 2 -12 -5 -8 -6 3 -19 -3 -30 -15 -15 -16 -28 -20 -54 -16 -45 5 -75
22 -75 40 0 8 -8 15 -17 15 -15 0 -16 -2 -3 -10 10 -7 11 -10 2 -10 -8 0 -12
-15 -10 -45 0 -25 5 -45 10 -45 4 0 8 -9 8 -20 0 -11 -4 -20 -10 -20 -6 0 -10
-47 -10 -120 0 -66 4 -120 8 -120 5 0 15 11 22 25 7 14 22 25 32 25 10 0 18 5
18 10 0 16 27 12 34 -5 8 -23 26 -18 26 8 1 19 2 20 13 6 8 -11 23 -14 50 -11
40 5 52 -12 15 -22 -13 -3 -29 -14 -35 -25 -11 -17 -10 -19 2 -15 11 5 13 2 9
-10 -9 -24 -31 -19 -38 9 -5 18 -11 23 -24 18 -28 -10 -62 -45 -55 -57 4 -7 1
-7 -7 1 -9 8 -20 8 -41 1 l-29 -10 0 -1109 c0 -979 2 -1109 15 -1109 9 0 15
-9 14 -22 -1 -17 -2 -19 -6 -5 -19 71 -23 -45 -23 -619 0 -600 1 -635 18 -632
12 2 19 18 26 61 4 31 13 57 18 57 5 0 6 -4 3 -10 -11 -18 7 -110 21 -110 8 0
14 10 15 23 l0 22 11 -22 11 -23 321 1 c177 0 316 3 310 5 -6 3 -9 15 -7 28 3
13 0 27 -6 30 -7 5 -11 -5 -11 -26 -1 -30 -2 -31 -13 -13 -20 34 -39 89 -40
118 -1 15 -9 32 -17 37 -12 8 -12 12 -2 18 10 7 9 27 -8 103 -46 209 -46 204
-16 239 14 17 26 36 26 41 0 5 6 9 14 9 8 0 17 9 21 19 3 11 14 23 24 26 10 3
24 18 32 32 8 15 29 41 47 58 36 34 39 50 15 79 -18 21 -18 21 3 3 22 -18 22
-18 37 12 19 38 26 68 32 146 8 83 10 99 17 110 3 6 9 29 13 53 4 24 13 46 20
48 7 3 16 15 19 27 3 12 28 47 55 77 28 30 50 59 51 64 0 4 18 26 40 47 22 22
40 43 40 48 0 5 9 13 20 16 11 4 18 10 15 15 -3 4 1 10 9 13 8 3 34 32 57 64
23 32 45 60 48 63 8 7 29 51 36 78 4 12 10 22 15 22 4 0 10 10 14 23 9 38 93
115 139 129 23 6 47 16 52 21 7 7 5 7 -4 2 -10 -6 -12 -4 -7 4 5 7 19 10 35 6
16 -3 48 3 86 19 33 13 78 27 99 30 61 10 86 17 86 26 0 5 28 12 63 17 l62 8
6 60 c5 53 15 84 51 161 17 35 111 132 138 142 23 9 30 5 60 -29 19 -21 36
-44 38 -51 2 -7 7 -15 10 -18 4 -3 21 -33 37 -67 29 -61 45 -78 45 -48 0 16
28 18 70 5 l25 -8 -27 -1 c-23 -1 -28 -6 -28 -25 0 -14 5 -28 11 -32 17 -10
252 -5 263 6 17 17 1 20 -37 8 -25 -8 -46 -8 -69 -1 -31 9 -30 10 36 18 62 7
71 6 83 -11 8 -11 17 -15 21 -9 7 10 38 29 110 67 23 12 42 28 42 35 0 7 4 13
10 13 17 0 150 133 150 151 0 44 71 34 95 -13 19 -38 19 -38 -1 -38 -11 0 -14
-5 -10 -16 5 -14 4 -15 -9 -4 -12 10 -15 10 -15 -4 0 -9 -9 -21 -19 -28 -10
-6 -17 -17 -14 -23 2 -7 -3 -15 -11 -18 -9 -4 -16 -13 -16 -20 0 -7 -11 -20
-25 -27 -31 -16 -31 -24 -2 -39 l22 -11 -22 6 c-23 5 -33 -11 -11 -18 9 -3 9
-6 0 -12 -7 -4 -12 -2 -12 3 0 6 -11 11 -25 11 -27 0 -34 -17 -10 -26 11 -5
12 -10 2 -25 -6 -10 -17 -19 -24 -19 -6 0 -13 -5 -15 -12 -3 -7 -7 -5 -11 6
-4 9 -3 15 2 12 5 -3 14 1 21 9 10 12 9 15 -4 15 -23 0 -59 -36 -53 -52 4 -9
6 -7 6 5 1 23 17 22 24 -2 4 -18 -13 -31 -48 -35 -5 -1 -14 -4 -20 -7 -5 -4
-22 -9 -37 -13 -16 -3 -28 -11 -28 -16 0 -6 -7 -10 -16 -10 -13 0 -14 3 -4 15
6 8 9 19 5 25 -3 5 1 10 9 10 9 0 16 5 16 11 0 26 -63 -3 -112 -51 -28 -27
-55 -50 -60 -50 -5 0 -6 -5 -3 -10 4 -6 3 -10 -2 -9 -22 4 -34 -3 -48 -28 -13
-23 -15 -24 -10 -6 6 21 4 22 -27 17 -57 -10 -87 -25 -81 -40 7 -20 -4 -17
-40 9 -36 26 -111 52 -174 61 -51 7 -56 1 -10 -14 l32 -10 -34 5 c-19 3 -40
10 -48 16 -16 14 -82 19 -89 8 -4 -8 2 -55 30 -209 13 -69 12 -77 -4 -95 -10
-11 -15 -26 -13 -33 3 -7 -31 -47 -74 -90 -43 -42 -89 -90 -101 -106 l-22 -29
-6 33 -7 32 -13 -37 c-14 -43 -12 -40 -42 -50 -19 -5 -25 -2 -29 15 -3 12 -9
17 -12 12 -8 -12 -62 -19 -78 -9 -13 8 -63 -8 -63 -21 0 -10 128 -132 139
-132 5 0 7 -8 4 -19 -3 -10 0 -22 6 -25 7 -4 8 -1 5 8 -7 19 7 21 24 4 15 -15
16 -32 2 -23 -5 3 -10 -1 -10 -9 0 -9 5 -16 10 -16 6 0 10 -7 10 -16 0 -11 -5
-14 -17 -9 -14 5 -116 25 -131 25 -2 0 0 5 4 11 7 13 -55 3 -69 -11 -7 -6 91
-60 112 -60 3 0 17 -9 30 -19 24 -18 24 -19 3 -30 -21 -11 -78 -5 -88 10 -3 5
-13 9 -22 9 -10 0 -24 9 -32 20 -16 22 -83 29 -95 10 -3 -5 -15 -10 -26 -10
-24 0 -25 -22 0 -44 19 -17 19 -18 -2 -51 -12 -19 -28 -34 -34 -35 -7 0 -13
-4 -13 -8 0 -15 -68 -32 -74 -18 -2 6 -4 -7 -4 -29 1 -22 5 -45 10 -52 5 -7 5
-14 -2 -18 -16 -10 -12 -35 6 -35 13 0 14 3 5 14 -16 19 5 32 24 16 22 -18 18
-33 -10 -47 -14 -6 -23 -7 -19 -2 3 5 -7 9 -21 9 -15 0 -24 -4 -20 -10 9 -14
-8 -13 -23 2 -9 9 -12 8 -12 -5 0 -9 5 -17 10 -17 6 0 10 -9 10 -19 0 -12 11
-23 31 -30 17 -6 28 -15 24 -21 -3 -6 4 -10 18 -10 13 0 27 -3 30 -7 4 -3 24
-8 44 -10 21 -2 40 -8 43 -12 3 -5 15 -11 27 -15 15 -5 20 -12 16 -24 -12 -29
-29 -42 -41 -30 -8 8 -13 6 -18 -7 -5 -11 -3 -20 4 -23 26 -8 10 -27 -23 -27
-40 0 -43 7 -15 37 11 12 20 26 20 32 0 6 -7 0 -16 -12 -8 -12 -21 -22 -28
-22 -17 0 -26 -22 -20 -48 4 -12 0 -22 -11 -26 -12 -4 -16 -2 -12 8 4 11 1 13
-11 9 -14 -5 -15 -3 -4 8 6 7 12 23 12 36 0 14 6 23 15 23 8 0 15 5 15 10 0 6
8 10 18 11 9 0 12 3 5 5 -6 3 -25 -2 -42 -10 -34 -18 -45 -20 -37 -8 6 10 -30
9 -40 -1 -4 -4 0 -7 10 -7 10 0 14 -5 10 -12 -5 -8 0 -9 14 -6 17 5 22 2 22
-14 0 -15 -5 -19 -20 -15 -11 3 -18 2 -15 -3 3 -4 -14 -26 -36 -49 -34 -34
-44 -39 -56 -29 -12 10 -14 9 -13 -3 6 -39 0 -49 -30 -49 -23 0 -30 -4 -30
-20 0 -21 46 -58 57 -46 4 4 -3 9 -15 13 -30 8 -28 33 3 33 18 0 26 7 31 24 4
18 11 22 26 18 14 -3 19 -1 14 6 -10 16 28 24 58 12 35 -13 36 -13 36 5 0 10
-10 15 -30 15 -16 0 -30 5 -30 10 0 16 30 24 43 11 6 -6 19 -11 29 -11 21 0
22 -4 7 -32 -8 -16 -8 -22 2 -29 24 -15 -10 -42 -45 -35 -27 5 -29 4 -14 -8
10 -7 28 -12 40 -10 13 1 26 3 31 3 4 1 7 12 7 25 0 19 4 23 20 19 29 -8 35
-23 11 -30 -11 -3 -23 -14 -27 -25 -5 -17 -12 -19 -48 -14 -22 4 -46 14 -53
22 -10 14 -14 14 -37 -3 -38 -27 -35 -45 4 -21 15 10 22 10 32 0 6 -6 20 -12
31 -12 10 0 15 -4 12 -10 -3 -5 -19 -7 -35 -3 -18 3 -36 0 -45 -7 -12 -10 -19
-10 -27 -2 -17 17 -45 15 -52 -3 -3 -9 -12 -12 -22 -8 -12 4 -15 3 -10 -6 4
-6 15 -10 23 -9 9 2 18 -3 20 -9 3 -7 0 -13 -6 -13 -6 0 -11 -6 -11 -14 0 -27
-20 -28 -30 -2 -12 32 -16 33 -22 1 -3 -14 -1 -23 6 -22 6 1 10 -2 9 -8 -1 -5
15 -11 34 -12 41 -2 51 -9 36 -24 -8 -8 -13 -8 -17 0 -11 17 -26 13 -26 -7 0
-21 -53 -76 -63 -65 -12 11 -8 23 8 23 9 0 20 12 25 26 13 33 13 34 -5 34 -8
0 -15 -9 -15 -19 0 -11 -5 -23 -12 -27 -7 -5 -8 -2 -3 7 6 10 5 11 -3 4 -7 -6
-14 -25 -18 -42 l-6 -32 317 2 c271 2 319 4 325 17 18 36 29 67 35 98 4 17 11
32 16 32 5 0 10 12 10 28 1 16 5 7 10 -23 5 -27 14 -74 20 -102 l10 -53 95 0
95 0 -16 30 c-8 16 -15 36 -15 45 0 8 -9 41 -20 72 -30 85 -27 106 15 126 20
9 44 17 54 17 10 0 24 7 31 15 7 8 35 18 63 21 27 4 58 15 67 24 16 16 18 16
29 -2 14 -22 6 -40 -17 -36 -10 1 -24 -2 -32 -7 -8 -5 -21 -10 -27 -10 -7 0
-13 -4 -13 -10 -1 -23 23 -114 47 -175 14 -36 29 -75 34 -87 8 -22 14 -23 114
-23 117 0 116 0 85 65 -12 26 -15 41 -8 44 6 2 14 -3 19 -10 11 -20 73 -84 81
-84 3 0 10 -3 14 -7 4 -5 187 -8 406 -8 347 0 398 2 398 15 0 8 -5 15 -11 15
-8 0 -7 5 2 16 11 14 11 18 -3 28 -11 8 -19 35 -24 74 -3 34 -10 62 -15 62 -5
0 -6 7 -3 15 4 8 1 15 -5 15 -7 0 -9 13 -5 35 4 27 2 34 -9 29 -10 -4 -16 6
-21 36 -5 34 -10 41 -24 35 -13 -5 -14 -3 -5 6 6 6 9 18 6 25 -3 8 0 14 7 14
8 0 10 9 6 25 -4 15 -2 25 4 25 7 0 9 8 5 19 -3 10 1 24 10 31 8 7 12 17 8 24
-4 6 -9 19 -10 30 -3 16 1 18 34 12 21 -3 53 -6 71 -6 30 0 32 -2 32 -37 0
-31 2 -34 13 -21 14 17 121 43 138 33 5 -4 8 -13 5 -21 -3 -8 -1 -14 4 -14 5
0 7 -7 3 -16 -3 -8 -12 -13 -20 -10 -8 4 -27 9 -41 12 -20 4 -23 3 -12 -5 16
-11 15 -13 -21 -28 -22 -9 -27 -8 -38 9 -20 32 -23 14 -5 -26 10 -20 26 -38
35 -41 10 -3 21 -15 24 -26 4 -10 12 -19 20 -19 7 0 16 -15 19 -34 4 -19 13
-40 22 -47 8 -6 13 -21 12 -33 -2 -15 2 -21 15 -21 10 0 22 -7 27 -16 7 -12 3
-15 -18 -15 -15 1 -28 -3 -29 -9 -2 -5 12 -10 30 -10 33 0 87 -29 87 -47 0 -5
-13 -7 -30 -3 -19 4 -30 3 -30 -4 0 -6 16 -11 35 -11 36 0 54 -18 40 -41 -6
-8 -10 -7 -16 2 -6 10 -9 7 -9 -10 0 -18 -4 -22 -17 -16 -10 5 -29 9 -42 10
-15 1 -29 11 -34 23 -6 12 -18 22 -29 22 -10 0 -18 6 -18 14 0 8 -13 16 -30
18 -35 5 -38 -2 -10 -20 11 -7 20 -18 20 -25 0 -21 66 -67 95 -67 9 0 18 -7
21 -15 9 -22 524 -23 524 0 0 23 40 94 62 109 11 8 17 19 13 25 -3 6 1 11 9
11 19 0 21 16 4 24 -7 2 -2 4 12 3 21 -2 25 3 27 28 2 25 1 26 -5 8 -5 -17
-11 -20 -22 -13 -10 6 -11 10 -2 10 6 0 12 3 12 8 0 15 -72 7 -84 -11 -7 -9
-18 -17 -24 -17 -5 0 -13 -11 -16 -25 -8 -30 -26 -34 -26 -6 0 11 -5 23 -10
26 -6 4 -7 12 -1 23 6 11 4 20 -6 28 -11 7 -16 28 -16 66 0 46 -4 56 -21 64
-14 6 -21 19 -22 39 0 17 -4 45 -9 64 -8 37 -88 196 -111 222 -8 8 -14 19 -14
23 0 16 -78 165 -117 222 -43 63 -51 67 -135 65 -10 0 -20 5 -24 10 -4 6 -10
7 -17 0 -13 -10 -17 -11 -46 -11 -10 0 -21 -9 -24 -20 -3 -12 -14 -20 -26 -20
-13 0 -21 -6 -21 -16 0 -9 -8 -23 -17 -29 -17 -13 -17 -14 1 -34 22 -24 15
-51 -14 -51 -11 0 -20 -5 -20 -11 0 -8 -5 -8 -15 1 -25 21 -19 -16 7 -40 17
-15 30 -19 51 -14 20 4 27 3 23 -5 -4 -6 -2 -27 3 -48 9 -31 8 -40 -8 -54 -27
-25 -94 -34 -111 -15 -17 22 -27 20 -33 -5 -5 -18 -11 -20 -34 -14 -15 3 -29
10 -31 15 -2 5 -9 7 -16 4 -18 -7 -27 21 -17 49 10 26 52 57 76 57 13 0 15 6
10 28 -3 16 -1 41 5 57 11 30 5 65 -12 65 -5 0 -21 9 -36 20 -16 13 -28 17
-32 10 -9 -14 -51 32 -53 59 -1 11 -6 21 -12 22 -10 0 -74 85 -143 190 -62 94
-103 150 -166 229 -72 89 -98 123 -130 171 -13 20 -52 67 -85 106 -33 39 -57
74 -53 78 4 5 2 5 -4 2 -7 -4 -17 -1 -23 7 -9 10 -7 16 4 26 13 11 16 11 13
-1 -2 -9 4 -13 15 -11 11 2 17 -4 17 -17 0 -11 5 -23 10 -26 6 -3 10 -1 10 4
0 6 5 11 11 11 8 0 8 -4 0 -14 -18 -22 4 -59 30 -51 10 4 19 3 19 -2 0 -4 24
-7 52 -6 72 2 70 2 63 13 -3 5 0 7 8 4 8 -3 17 1 20 9 3 8 21 17 40 21 27 5
37 13 41 32 4 16 12 24 20 21 10 -4 16 5 20 28 4 18 13 36 21 39 9 3 20 17 27
31 6 14 17 25 25 25 7 0 13 3 13 8 0 4 18 18 40 32 22 14 40 28 40 32 0 13 94
50 98 38 2 -5 12 -10 22 -10 9 0 23 -7 30 -15 14 -17 91 -55 112 -55 27 0 130
-42 148 -60 3 -3 35 -20 73 -38 69 -34 152 -94 197 -141 43 -46 90 -108 90
-120 0 -7 7 -14 15 -17 8 -4 15 -9 15 -13 0 -4 24 -33 54 -65 39 -42 55 -69
58 -93 4 -31 2 -34 -18 -30 -16 3 -21 0 -17 -10 3 -7 12 -13 20 -13 11 0 7 -7
-11 -21 -15 -12 -34 -18 -42 -15 -12 5 -15 2 -12 -12 7 -26 -38 -47 -52 -24
-8 13 -9 9 -5 -15 3 -19 1 -33 -5 -33 -5 0 -10 9 -10 19 0 11 -5 23 -10 26 -8
5 -7 11 1 21 6 7 8 21 5 31 -4 9 -1 20 6 25 10 8 10 11 0 15 -6 2 -9 10 -5 16
3 7 -6 -1 -22 -18 -16 -17 -23 -31 -16 -33 6 -2 11 -10 11 -18 0 -8 -6 -11
-17 -7 -11 4 -14 3 -9 -5 4 -7 2 -12 -3 -12 -6 0 -11 -5 -11 -12 0 -6 3 -9 6
-5 17 17 32 -24 30 -84 -1 -35 3 -70 8 -77 7 -9 6 -16 -3 -22 -11 -6 -11 -9 0
-14 11 -5 12 -7 1 -12 -10 -5 -9 -9 5 -20 12 -9 13 -13 5 -14 -7 0 -12 -8 -10
-18 1 -9 -1 -23 -5 -30 -6 -8 1 -15 19 -22 15 -6 31 -13 37 -17 5 -3 7 11 3
38 -4 24 -8 74 -10 110 -1 36 -5 70 -8 75 -8 12 18 74 32 74 5 0 10 7 10 16 0
8 4 12 10 9 5 -3 18 -2 28 4 10 5 24 6 30 2 15 -9 5 -41 -12 -42 -6 0 0 -5 13
-10 22 -9 23 -11 7 -27 -21 -24 -20 -32 3 -32 22 0 19 -31 -5 -51 -19 -15 -18
-26 4 -31 14 -4 17 -13 14 -51 -3 -40 -7 -47 -26 -47 -19 -1 -19 -2 -3 -11 21
-12 23 -33 2 -26 -8 4 -17 2 -20 -2 -3 -5 2 -11 10 -15 8 -3 15 -12 15 -21 0
-8 5 -15 10 -15 6 0 15 -11 21 -24 10 -21 15 -23 35 -14 13 6 21 15 18 19 -3
5 -7 57 -9 116 -2 60 -7 126 -10 147 -3 22 -3 46 1 55 4 9 8 23 10 31 1 8 4
24 7 35 4 21 37 35 37 16 0 -6 -4 -11 -10 -11 -5 0 -10 -4 -10 -10 0 -5 6 -7
13 -4 7 2 22 -4 32 -16 13 -15 15 -20 4 -20 -8 0 -5 -6 8 -15 13 -9 20 -22 17
-30 -4 -9 0 -15 9 -15 22 0 31 -18 16 -36 -10 -12 -9 -13 6 -7 14 5 17 3 12
-10 -4 -12 -1 -17 9 -17 9 0 14 -6 11 -13 -3 -7 4 -19 14 -25 10 -7 20 -22 20
-35 1 -17 2 -18 6 -4 7 25 23 10 23 -21 0 -15 9 -42 20 -60 11 -18 20 -39 20
-46 0 -7 6 -19 14 -26 17 -13 89 -158 89 -177 0 -7 4 -13 8 -13 5 0 16 -17 26
-38 9 -20 23 -42 30 -47 8 -6 20 -28 28 -50 8 -22 14 -32 15 -22 0 10 8 17 20
17 20 0 20 7 20 2030 l0 2030 -51 0 c-31 0 -48 -4 -44 -10 8 -13 -1 -13 -25 2
-23 15 -34 6 -44 -35 -4 -18 -3 -26 3 -23 5 4 12 2 16 -4 10 -16 -18 -11 -40
6 -14 11 -16 18 -7 21 19 7 14 23 -8 23 -11 0 -29 -9 -40 -20 -21 -21 -50 -27
-50 -10 0 6 -10 10 -22 10 -21 1 -22 2 -5 14 9 7 17 16 17 20 0 3 -72 6 -160
6 -146 0 -181 -6 -150 -25 5 -3 10 -12 10 -18 0 -9 -2 -9 -8 -1 -4 7 -16 14
-27 16 -11 2 -19 10 -18 16 2 7 -9 12 -25 12 -26 0 -28 -3 -24 -29 4 -26 1
-29 -22 -28 -16 1 -24 7 -21 15 2 6 0 12 -5 12 -5 0 -7 7 -4 15 9 23 -141 22
-163 -1 -12 -11 -13 -18 -5 -23 8 -5 2 -18 -18 -40 -20 -21 -30 -27 -30 -17 0
9 -4 16 -10 16 -5 0 -10 5 -10 11 0 5 4 8 9 5 15 -10 21 36 6 50 -17 17 -56
18 -52 2 3 -16 -86 -13 -91 2 -2 6 -59 10 -133 9 -117 0 -130 -2 -139 -20 -6
-10 -17 -19 -25 -19 -20 0 -19 10 3 26 15 12 11 13 -30 14 -27 0 -48 -5 -48
-10 0 -6 6 -9 13 -8 6 2 12 -6 12 -17 0 -11 6 -24 13 -28 17 -11 15 -27 -6
-43 -27 -21 -40 -17 -34 12 4 24 3 25 -17 12 -15 -9 -24 -10 -29 -2 -4 6 -15
13 -24 17 -20 7 -22 15 -8 37 7 11 12 12 20 4 15 -15 50 -6 50 12 0 10 -22 13
-90 13 l-90 0 0 -39 c0 -21 -5 -42 -11 -45 -7 -5 -8 7 -4 39 l7 46 -798 -1
c-440 0 -792 -3 -784 -6 8 -3 19 -12 23 -20 5 -8 18 -18 30 -23 22 -8 22 -8 2
-16 -21 -8 -52 -35 -47 -41 7 -10 0 -23 -14 -23 -12 0 -15 -7 -12 -25 3 -14 1
-25 -3 -25 -5 0 -9 5 -9 10 0 6 -9 10 -20 10 -21 0 -35 20 -28 41 3 8 10 5 23
-7 18 -19 18 -19 13 4 -5 19 -3 22 14 16 14 -4 18 -3 13 5 -4 7 -19 9 -39 5
-29 -5 -34 -3 -39 18 -5 17 -1 28 16 40 12 10 27 18 34 18 6 0 15 4 18 10 9
14 -266 10 -284 -4 -11 -8 -13 -8 -7 2 6 9 -98 12 -503 12 l-511 0 0 -21z
m3291 -19 c15 -8 17 -7 13 5 -5 11 1 15 20 15 26 0 26 -1 10 -25 -19 -29 -27
-31 -44 -10 -10 12 -16 12 -26 4 -8 -6 -22 -8 -31 -4 -16 7 -15 9 7 15 21 7
22 8 5 10 l-20 1 20 8 c11 5 22 4 23 0 2 -5 12 -14 23 -19z m-3126 10 c3 -5
-3 -10 -15 -10 -12 0 -18 5 -15 10 3 6 10 10 15 10 5 0 12 -4 15 -10z m3985
-10 c0 -5 -2 -10 -4 -10 -3 0 -8 5 -11 10 -3 6 -1 10 4 10 6 0 11 -4 11 -10z
m-3719 -41 c22 -23 38 -44 35 -46 -5 -5 -86 73 -86 82 0 12 15 2 51 -36z
m3536 27 c-12 -9 -14 -16 -8 -21 6 -3 11 -10 11 -15 0 -25 -84 -19 -94 7 -5
11 2 14 27 11 20 -2 38 3 50 15 9 9 20 17 25 17 4 0 -1 -7 -11 -14z m50 -31
c-7 -7 -15 -11 -19 -8 -12 7 -9 31 5 36 17 6 27 -14 14 -28z m373 13 c0 -6 -6
-5 -15 2 -8 7 -15 14 -15 16 0 2 7 1 15 -2 8 -4 15 -11 15 -16z m114 7 c-4 -8
1 -17 10 -21 9 -3 16 -11 16 -17 0 -5 -8 -3 -18 7 -18 15 -20 15 -37 -4 -10
-11 -22 -20 -27 -20 -5 0 2 12 16 27 14 15 23 30 20 35 -3 4 2 8 10 8 10 0 13
-6 10 -15z m-684 -5 c0 -5 10 -11 23 -11 16 -1 18 -2 5 -6 -10 -2 -18 -8 -18
-13 0 -12 -28 -20 -45 -14 -8 4 -15 12 -15 20 0 8 6 11 17 7 12 -5 15 -2 10
10 -4 11 -1 17 8 17 8 0 15 -4 15 -10z m-2380 -39 c0 -5 -7 -11 -15 -15 -9 -3
-15 0 -15 9 0 8 7 15 15 15 8 0 15 -4 15 -9z m-1073 -58 c24 -27 39 -49 33
-51 -20 -7 -10 -32 15 -38 30 -7 32 -20 5 -29 -23 -7 -63 3 -56 14 3 4 -6 20
-20 36 -26 30 -30 45 -13 45 20 0 4 45 -21 57 -21 10 -22 13 -6 13 11 0 39
-21 63 -47z m2683 37 c0 -5 -7 -10 -15 -10 -28 0 -15 -17 18 -24 25 -5 29 -9
17 -16 -8 -5 -11 -10 -6 -10 5 0 1 -9 -9 -20 -10 -11 -13 -20 -7 -20 7 0 12
-6 12 -13 0 -8 12 -14 29 -15 24 0 28 3 24 19 -4 14 -1 18 10 14 22 -9 15 -39
-10 -47 -30 -8 -63 1 -63 18 0 8 -7 17 -15 20 -8 4 -15 13 -15 21 0 11 -7 13
-26 9 -21 -6 -25 -4 -21 7 3 8 0 20 -6 26 -8 8 -7 11 4 11 8 0 21 9 29 20 15
21 50 28 50 10z m445 -11 c-4 -20 -1 -21 43 -17 26 3 41 3 33 0 -11 -4 -11 -6
0 -13 10 -6 11 -9 2 -9 -7 0 -13 -4 -13 -10 0 -5 7 -7 15 -4 8 4 15 16 15 29
0 20 17 35 39 35 5 0 8 -13 9 -30 0 -24 -4 -30 -20 -30 -11 0 -22 -8 -25 -18
-3 -14 -14 -18 -39 -18 -19 1 -34 4 -34 9 0 4 -9 7 -20 7 -25 0 -26 -16 -2
-29 18 -11 3 -15 -22 -5 -8 3 -12 12 -9 21 3 8 0 19 -8 23 -7 5 -10 12 -6 16
3 4 13 2 20 -4 8 -7 17 -9 20 -5 9 9 -13 34 -24 27 -5 -3 -9 0 -9 5 0 6 5 11
10 11 6 0 10 7 10 15 0 8 4 15 9 15 6 0 8 -10 6 -21z m325 6 c0 -9 -6 -12 -17
-8 -10 3 -15 2 -10 -2 11 -13 -34 -55 -60 -55 -13 0 -23 5 -23 10 0 6 7 10 15
10 9 0 14 8 12 22 -1 14 4 23 16 26 10 2 17 -3 17 -12 0 -9 4 -16 10 -16 5 0
7 6 4 14 -3 8 2 16 13 19 10 3 19 5 21 6 1 0 2 -6 2 -14z m724 0 c-6 -14 -44
-22 -44 -10 0 4 29 19 47 24 1 1 0 -6 -3 -14z m-1244 -8 c0 -19 -10 -27 -25
-20 -17 6 -8 33 11 33 8 0 14 -6 14 -13z m600 9 c0 -3 -4 -8 -10 -11 -5 -3
-10 -1 -10 4 0 6 5 11 10 11 6 0 10 -2 10 -4z m-3500 -16 c0 -5 -5 -10 -11
-10 -5 0 -7 5 -4 10 3 6 8 10 11 10 2 0 4 -4 4 -10z m133 -12 c4 -12 1 -29 -6
-37 -10 -12 -9 -13 13 -1 28 16 51 14 62 -3 12 -19 10 -22 -19 -35 -27 -11
-27 -11 -3 -9 15 1 29 12 37 27 9 18 13 20 13 8 0 -28 -35 -57 -62 -52 -21 5
-22 4 -5 -9 17 -14 17 -15 -2 -20 -23 -6 -53 12 -33 20 19 7 14 23 -7 23 -15
0 -21 10 -26 40 -4 22 -12 43 -18 47 -10 6 12 17 44 22 4 1 9 -9 12 -21z m290
3 c-4 -15 14 -14 19 1 3 7 12 6 30 -6 25 -16 29 -46 7 -46 -19 0 -8 -19 14
-23 21 -4 21 -4 1 -6 -12 0 -37 14 -57 34 -38 37 -47 42 -47 24 0 -5 4 -8 9
-5 4 3 13 -6 19 -19 7 -15 8 -25 2 -25 -6 0 -10 5 -10 10 0 6 -5 9 -11 8 -15
-4 -20 31 -8 54 11 20 36 19 32 -1z m1957 -11 c0 -5 -4 -10 -10 -10 -5 0 -10
5 -10 10 0 6 5 10 10 10 6 0 10 -4 10 -10z m-930 -10 c0 -5 -4 -10 -10 -10 -5
0 -10 5 -10 10 0 6 5 10 10 10 6 0 10 -4 10 -10z m1830 0 c0 -5 -7 -10 -15
-10 -8 0 -15 5 -15 10 0 6 7 10 15 10 8 0 15 -4 15 -10z m720 -10 c0 -19 -20
-27 -33 -13 -8 7 11 33 24 33 5 0 9 -9 9 -20z m-3371 -6 c-6 -8 -16 -11 -21
-8 -6 4 -14 0 -19 -7 -8 -12 -11 -12 -19 1 -16 24 -12 27 30 27 33 0 38 -2 29
-13z m2781 13 c0 -1 -4 -17 -9 -35 -6 -20 -6 -32 0 -32 5 0 4 -9 -3 -20 -17
-26 -32 -26 -25 1 4 15 2 19 -8 15 -9 -3 -12 0 -8 9 3 8 9 12 14 9 5 -3 9 9 9
25 0 21 5 31 15 31 8 0 15 -1 15 -3z m-1990 -17 c0 -5 -4 -10 -10 -10 -5 0
-10 5 -10 10 0 6 5 10 10 10 6 0 10 -4 10 -10z m1455 0 c3 -5 -3 -10 -14 -10
-12 0 -21 5 -21 10 0 6 6 10 14 10 8 0 18 -4 21 -10z m-1965 -15 c0 -8 -7 -15
-15 -15 -26 0 -18 20 13 29 1 1 2 -6 2 -14z m3030 11 c0 -2 -7 -7 -16 -10 -8
-3 -12 -2 -9 4 6 10 25 14 25 6z m-4276 -23 c6 -15 8 -15 16 -3 8 13 10 12 10
-2 0 -9 8 -19 18 -22 9 -2 4 -4 -12 -3 -26 2 -73 47 -48 47 5 0 13 -8 16 -17z
m2743 -15 c-3 -8 -6 -5 -6 6 -1 11 2 17 5 13 3 -3 4 -12 1 -19z m408 12 c-3
-5 1 -10 10 -10 9 0 13 -5 10 -11 -4 -6 -13 -8 -21 -5 -8 3 -14 -1 -14 -8 0
-17 -57 -39 -65 -25 -4 5 1 9 10 9 10 0 15 7 13 18 -2 12 3 16 16 14 10 -2 15
1 12 6 -3 6 0 13 6 15 21 9 30 8 23 -3z m53 1 c11 -7 10 -9 -3 -14 -9 -4 -14
-3 -10 2 3 5 -1 12 -7 14 -7 3 -8 6 -3 6 6 0 16 -3 23 -8z m-2458 -10 c0 -4
11 -6 25 -3 31 5 33 -11 4 -32 -12 -8 -18 -19 -15 -25 4 -5 -2 -9 -11 -9 -10
0 -26 -3 -37 -7 -14 -6 -18 -5 -14 6 3 8 13 14 24 14 18 1 19 4 7 48 -3 9 0
17 6 17 6 0 11 -4 11 -9z m-140 -18 c0 -15 2 -16 10 -3 8 13 11 13 25 -1 12
-12 13 -21 4 -47 -11 -33 -16 -36 -43 -26 -11 4 -13 11 -6 23 6 12 5 24 -5 38
-14 20 -11 33 7 33 4 0 8 -8 8 -17z m105 7 c3 -5 1 -10 -4 -10 -6 0 -11 5 -11
10 0 6 2 10 4 10 3 0 8 -4 11 -10z m632 -22 c-3 -7 -5 -2 -5 12 0 14 2 19 5
13 2 -7 2 -19 0 -25z m2227 5 c5 -11 2 -13 -10 -9 -8 3 -18 6 -20 6 -2 0 -4 7
-4 15 0 18 26 9 34 -12z m81 9 c-3 -3 -11 0 -18 7 -9 10 -8 11 6 5 10 -3 15
-9 12 -12z m-1975 -1 c0 -5 10 -7 23 -3 21 5 21 4 4 -15 -9 -11 -14 -23 -10
-26 12 -13 -13 -7 -32 7 -11 8 -16 19 -12 30 7 17 27 22 27 7z m1190 -7 c0
-11 6 -14 23 -8 12 4 25 11 28 16 9 14 38 -2 32 -18 -3 -10 0 -12 10 -8 11 4
15 -1 13 -19 -1 -22 -4 -24 -26 -15 -13 5 -31 15 -39 21 -12 9 -13 9 -7 0 5
-9 0 -13 -13 -13 -12 0 -21 7 -21 15 0 9 -7 18 -15 21 -8 4 -15 10 -15 15 0 5
7 9 15 9 8 0 15 -7 15 -16z m-1540 -4 c0 -5 -4 -10 -9 -10 -6 0 -13 5 -16 10
-3 6 1 10 9 10 9 0 16 -4 16 -10z m2285 0 c3 -5 1 -10 -4 -10 -6 0 -11 5 -11
10 0 6 2 10 4 10 3 0 8 -4 11 -10z m-3025 -10 c0 -5 -7 -7 -15 -4 -8 4 -15 8
-15 10 0 2 7 4 15 4 8 0 15 -4 15 -10z m1296 -10 c-3 -11 -9 -29 -12 -40 -4
-16 -2 -18 12 -13 12 4 15 3 10 -5 -4 -8 -2 -10 8 -6 8 3 16 15 18 26 2 13 12
22 26 25 19 2 23 -1 20 -19 -2 -13 -9 -23 -17 -23 -8 0 -16 -6 -18 -12 -3 -7
0 -13 6 -13 6 0 11 -4 11 -8 0 -4 -9 -8 -19 -8 -11 0 -17 4 -15 8 6 9 1 10
-19 2 -9 -3 -13 -13 -10 -24 4 -16 9 -18 24 -9 23 12 40 4 33 -15 -3 -8 -18
-13 -35 -12 -16 1 -29 -2 -29 -7 0 -14 -43 -46 -63 -47 -10 0 -15 5 -12 10 3
6 1 10 -4 10 -10 0 -15 -14 -12 -34 1 -5 -5 -6 -14 -2 -9 3 -21 6 -26 6 -5 0
-9 7 -9 16 0 11 5 14 16 10 11 -4 19 3 27 24 12 31 21 37 32 21 3 -6 -3 -14
-12 -20 -10 -6 -13 -10 -8 -10 24 0 40 26 41 67 1 23 7 49 14 57 10 12 9 15
-5 15 -14 0 -15 3 -5 15 7 8 9 15 4 16 -7 1 3 5 44 18 2 1 1 -8 -2 -19z m1758
4 c3 -8 2 -12 -4 -9 -6 3 -10 10 -10 16 0 14 7 11 14 -7z m-3599 -4 c-3 -5
-13 -10 -21 -10 -8 0 -12 5 -9 10 3 6 13 10 21 10 8 0 12 -4 9 -10z m1240 -10
c3 -5 -1 -10 -10 -10 -9 0 -13 5 -10 10 3 6 8 10 10 10 2 0 7 -4 10 -10z m324
-22 c25 -26 17 -41 -19 -36 -21 3 -27 1 -23 -10 3 -8 0 -18 -8 -23 -21 -13
-26 -11 -32 11 -3 11 0 18 6 17 6 -1 12 8 13 19 3 48 31 58 63 22z m56 13 c3
-5 1 -12 -4 -15 -5 -3 -11 1 -15 9 -6 16 9 21 19 6z m1074 -41 c-10 -65 -18
-90 -29 -90 -14 0 -24 22 -13 29 18 11 33 49 33 80 0 17 4 31 9 31 4 0 4 -23
0 -50z m-1016 -24 c-12 -6 -23 -18 -23 -28 0 -10 -4 -18 -9 -18 -5 0 -8 11 -7
25 0 14 4 25 8 25 4 0 5 7 2 15 -4 10 2 18 17 24 20 7 25 5 30 -13 4 -16 0
-23 -18 -30z m80 47 c9 -16 -8 -42 -21 -34 -7 4 -10 15 -6 24 6 18 20 22 27
10z m562 -15 c-3 -13 -3 -18 2 -13 13 16 35 17 44 3 7 -10 11 -10 21 0 14 14
38 16 38 2 0 -16 -49 -23 -65 -10 -16 13 -18 11 -28 -37 -3 -15 -1 -20 9 -16
8 3 14 0 14 -6 0 -6 -4 -11 -9 -11 -5 0 -7 -10 -4 -22 4 -18 2 -20 -6 -8 -5 8
-13 11 -17 7 -4 -3 -1 -13 5 -21 7 -8 10 -20 6 -26 -3 -5 1 -10 9 -10 8 0 17
-3 19 -7 3 -5 -12 -8 -34 -8 -21 0 -39 4 -39 8 0 5 -7 2 -15 -7 -21 -21 -19
-28 8 -21 21 5 21 5 -2 -9 -28 -16 -48 -12 -74 16 -17 17 -17 18 7 28 13 5 34
17 45 26 l20 18 -22 11 c-30 15 -29 49 2 53 13 2 20 7 14 10 -6 4 -13 17 -17
30 -5 16 -3 22 7 22 9 0 17 -6 19 -12 3 -8 9 -4 17 10 15 29 34 29 26 0z m755
12 c0 -5 -12 -10 -27 -10 -22 0 -25 2 -13 10 20 13 40 13 40 0z m-2472 -70
c34 -36 44 -42 52 -30 12 19 25 6 15 -17 -5 -10 -7 -24 -6 -30 1 -7 -6 -13
-15 -13 -10 0 -15 3 -11 6 8 9 -21 64 -34 64 -5 0 -13 8 -16 17 -4 9 -20 30
-37 46 -17 16 -22 24 -11 16 11 -7 39 -34 63 -59z m52 58 c0 -9 3 -9 12 0 15
15 58 16 58 2 0 -5 -7 -10 -16 -10 -10 0 -13 -6 -10 -17 3 -10 1 -25 -4 -33
-9 -13 -11 -13 -19 0 -5 8 -7 18 -5 22 3 4 0 8 -5 8 -6 0 -11 -7 -11 -15 0
-31 -15 -14 -17 20 -2 19 2 35 7 35 6 0 10 -5 10 -12z m600 -3 c0 -8 -4 -15
-9 -15 -13 0 -22 16 -14 24 11 11 23 6 23 -9z m184 -11 c3 -9 1 -25 -5 -36 -6
-11 -9 -21 -7 -21 2 -1 13 -11 26 -22 18 -14 25 -16 31 -7 4 8 15 10 26 6 17
-7 17 -8 -1 -21 -10 -7 -12 -13 -6 -13 7 0 12 -4 12 -10 0 -17 -18 -11 -39 12
-17 17 -23 19 -36 8 -8 -7 -12 -17 -9 -22 3 -5 12 -1 19 8 12 17 13 16 20 -5
9 -30 4 -34 -38 -26 -25 5 -34 11 -30 21 8 21 -21 17 -42 -6 -18 -20 -72 -29
-60 -10 3 5 0 7 -9 4 -11 -4 -14 2 -14 25 1 24 6 31 21 31 13 0 17 -5 13 -16
-4 -10 -1 -14 6 -12 7 3 16 18 20 36 11 40 25 48 47 28 10 -9 21 -16 24 -16
11 0 8 38 -3 42 -5 2 -7 13 -4 25 6 23 29 21 38 -3z m2046 7 c0 -6 -4 -13 -10
-16 -5 -3 -10 1 -10 9 0 9 5 16 10 16 6 0 10 -4 10 -9z m-50 -21 c0 -5 -4 -10
-9 -10 -6 0 -13 5 -16 10 -3 6 1 10 9 10 9 0 16 -4 16 -10z m-2272 -34 c3 -11
-4 -19 -18 -23 -16 -4 -18 -8 -8 -14 11 -7 11 -12 0 -30 -7 -11 -11 -23 -8
-26 8 -9 26 7 26 24 0 13 3 13 15 3 10 -9 15 -9 15 -1 0 6 5 11 10 11 6 0 10
-12 10 -26 0 -16 -5 -24 -12 -21 -7 2 -23 1 -35 -4 -26 -10 -70 9 -76 32 -3
12 1 15 17 12 12 -3 17 -1 11 4 -5 4 -11 15 -12 23 -1 8 -5 25 -9 38 -6 22 -5
23 32 20 27 -3 40 -9 42 -22z m590 6 c2 -7 -8 -16 -21 -21 -14 -6 -29 -17 -34
-26 -8 -14 -13 -14 -44 -1 -27 12 -30 15 -12 16 12 0 27 9 34 21 7 14 17 19
30 16 10 -3 19 -1 19 5 0 13 23 5 28 -10z m24 -4 c-7 -7 -12 -8 -12 -2 0 14
12 26 19 19 2 -3 -1 -11 -7 -17z m-449 -8 c-5 -19 -23 -29 -23 -12 0 7 20 32
26 32 1 0 0 -9 -3 -20z m1606 6 c6 -7 9 -20 6 -27 -6 -15 -50 -39 -72 -39 -9
0 -10 -6 -3 -24 10 -27 5 -37 -16 -29 -10 3 -12 0 -9 -10 8 -20 -17 -28 -39
-12 -17 13 -17 15 -1 39 10 14 15 33 12 41 -8 19 18 45 44 45 11 0 27 7 35 15
19 19 28 19 43 1z m516 -14 c-7 -8 -35 7 -35 18 0 6 7 6 20 -2 10 -7 17 -14
15 -16z m-2552 12 c6 -6 -23 -44 -35 -44 -12 0 -10 19 5 35 13 16 21 18 30 9z
m347 -25 c0 -14 -36 -15 -48 -2 -10 11 -9 13 8 13 11 0 20 6 20 13 0 12 20
-11 20 -24z m-298 -35 c-13 -23 -25 -1 -16 28 6 19 7 19 16 5 5 -10 5 -23 0
-33z m2058 37 c0 -12 66 -19 85 -8 11 6 15 3 15 -12 0 -10 6 -21 13 -24 20 -6
-13 -39 -35 -34 -10 3 -18 1 -18 -4 0 -10 -31 -12 -54 -3 -25 9 -1 44 32 45
25 2 25 2 3 6 -13 3 -28 0 -33 -5 -7 -7 -17 -7 -30 1 -16 10 -21 9 -29 -5 -5
-10 -16 -15 -24 -12 -23 9 -18 20 15 34 17 7 30 16 30 21 0 5 7 9 15 9 8 0 15
-4 15 -9z m-2980 -17 c0 -9 -12 -14 -36 -14 -30 0 -34 3 -25 14 6 7 23 14 36
14 15 0 25 -6 25 -14z m2430 1 c0 -8 -4 -15 -9 -15 -5 0 -17 -3 -26 -6 -15 -6
-15 -4 -4 15 16 24 39 28 39 6z m855 5 c-3 -5 -15 -10 -26 -10 -10 0 -19 5
-19 10 0 6 12 10 26 10 14 0 23 -4 19 -10z m1063 -8 c2 -7 -3 -12 -12 -12 -9
0 -16 7 -16 16 0 17 22 14 28 -4z m-1731 -32 c-1 -10 5 -14 21 -12 12 2 22 -1
22 -6 0 -10 30 -12 45 -3 6 3 3 -1 -7 -11 -10 -9 -18 -21 -18 -27 0 -11 -19
-15 -51 -13 -9 1 -25 -7 -35 -17 -15 -14 -24 -16 -41 -8 -13 6 -23 18 -23 27
0 9 -3 20 -7 24 -15 15 -9 46 9 46 10 0 26 9 35 19 13 16 19 17 34 8 11 -7 18
-19 16 -27z m-2062 20 c3 -6 -1 -13 -9 -16 -9 -3 -16 -14 -16 -23 0 -24 -8
-30 -30 -24 -29 8 -32 40 -3 47 13 4 21 11 18 16 -3 6 3 10 14 10 11 0 23 -5
26 -10z m1309 1 c7 -11 -22 -23 -36 -15 -6 4 -5 10 3 15 18 11 26 11 33 0z
m335 0 c17 -11 6 -31 -19 -31 -13 0 -17 5 -13 20 6 22 11 24 32 11z m-1505
-27 c3 -8 2 -14 -2 -14 -10 0 -32 22 -32 32 0 12 28 -2 34 -18z m-601 1 c18
-13 18 -14 -2 -24 -30 -16 -51 -13 -51 7 0 34 22 41 53 17z m66 2 c13 -16 5
-27 -21 -27 -11 0 -18 7 -18 20 0 23 22 27 39 7z m3044 -19 c16 -10 39 3 33
18 -3 8 0 14 6 14 6 0 8 -11 4 -30 -5 -27 -4 -29 13 -21 10 6 21 8 24 4 3 -3
13 2 22 11 25 25 35 19 23 -15 -9 -28 -14 -30 -52 -29 -58 3 -62 2 -48 -12 15
-15 16 -38 2 -38 -5 0 -10 5 -10 12 0 6 -8 21 -17 32 -10 12 -14 18 -9 14 5
-4 15 -1 22 7 20 19 18 23 -11 20 -21 -3 -25 1 -24 23 0 16 3 21 6 12 3 -8 11
-18 16 -22z m-3218 12 c-3 -5 1 -10 9 -10 18 0 47 -40 39 -53 -3 -6 -10 0 -15
13 l-9 24 -15 -22 c-17 -24 -62 -30 -70 -9 -3 8 0 26 5 40 8 20 18 27 36 27
15 0 24 -4 20 -10z m2915 -21 c0 -18 -38 -51 -50 -44 -8 5 -5 12 10 22 12 8
19 21 16 29 -3 8 0 11 10 7 7 -3 14 -9 14 -14z m-1030 1 c0 -5 -4 -10 -10 -10
-5 0 -10 5 -10 10 0 6 5 10 10 10 6 0 10 -4 10 -10z m-180 -26 c0 -8 -6 -14
-12 -15 -10 0 -10 -2 0 -6 6 -2 12 -14 12 -24 0 -13 -4 -18 -12 -13 -6 4 -20
-4 -32 -19 l-21 -26 -12 24 c-9 21 -8 25 4 25 8 0 11 -4 8 -10 -3 -5 -1 -10 4
-10 6 0 12 6 12 13 2 24 5 32 18 59 14 28 31 29 31 2z m145 6 c-3 -5 -13 -7
-23 -5 -9 2 -19 4 -22 4 -3 1 1 5 9 10 16 10 44 3 36 -9z m1265 13 c-1 -24
-60 -47 -60 -23 0 6 10 15 23 20 28 11 37 12 37 3z m-1515 -24 c-4 -11 -2 -19
5 -19 6 0 8 5 5 10 -3 6 1 10 9 10 20 0 21 -26 1 -34 -20 -7 -65 13 -65 30 0
7 -6 14 -12 17 -7 2 4 5 25 5 33 0 37 -3 32 -19z m-1035 1 c0 -6 10 -8 24 -4
27 6 44 -11 20 -20 -27 -10 -88 9 -79 25 8 12 35 12 35 -1z m627 4 c-3 -3 -12
-4 -19 -1 -8 3 -5 6 6 6 11 1 17 -2 13 -5z m197 -9 c3 -8 12 -15 21 -15 8 0
15 -4 15 -10 0 -5 -12 -10 -26 -10 -19 0 -25 4 -20 15 3 9 0 15 -10 15 -8 0
-12 5 -9 10 9 15 22 12 29 -5z m936 5 c0 -5 -4 -10 -10 -10 -5 0 -10 5 -10 10
0 6 5 10 10 10 6 0 10 -4 10 -10z m840 0 c0 -5 -5 -10 -11 -10 -5 0 -7 5 -4
10 3 6 8 10 11 10 2 0 4 -4 4 -10z m-2955 -28 c-8 -8 -25 10 -19 20 4 6 9 5
15 -3 4 -7 6 -15 4 -17z m310 2 c11 -17 14 -35 10 -55 -5 -22 -3 -29 7 -27 8
2 13 -7 13 -27 0 -20 -5 -29 -13 -27 -8 1 -11 -2 -8 -7 3 -5 -2 -12 -11 -16
-10 -3 -19 -1 -21 5 -2 6 -10 17 -19 25 -8 8 -11 16 -6 16 4 1 13 2 18 4 6 1
14 3 18 3 5 1 1 9 -8 18 -20 20 -15 49 8 48 16 -2 15 2 -4 32 -24 39 -10 47
16 8z m3565 5 c0 -5 -4 -9 -8 -9 -5 0 -9 7 -9 15 0 8 4 12 9 9 4 -3 8 -9 8
-15z m-3917 -12 c24 -9 22 -30 -2 -22 -12 3 -23 0 -28 -8 -6 -11 -14 -12 -33
-5 -14 6 -20 12 -13 15 7 2 10 10 7 18 -6 13 36 26 46 14 3 -3 13 -8 23 -12z
m1144 17 c-3 -3 -12 -4 -19 -1 -8 3 -5 6 6 6 11 1 17 -2 13 -5z m241 -22 c-10
-2 -18 -8 -18 -14 0 -6 -13 -8 -30 -6 -16 3 -30 1 -30 -4 0 -4 -9 -8 -20 -8
-11 0 -20 7 -20 15 0 9 6 12 15 9 8 -4 22 -1 30 6 8 6 19 9 25 5 5 -3 13 1 16
9 5 13 10 13 27 4 19 -11 20 -13 5 -16z m-1600 1 c2 -8 -5 -13 -17 -13 -21 0
-35 13 -24 24 10 10 36 3 41 -11z m2950 -3 c-7 -10 -14 -18 -15 -16 -6 6 9 36
18 36 5 0 4 -9 -3 -20z m128 -1 c1 -8 2 -20 3 -28 0 -8 4 -12 7 -8 4 3 15 -4
26 -16 l19 -22 -11 23 c-11 23 -5 27 24 16 11 -4 13 -10 7 -18 -19 -23 3 -36
33 -20 32 16 43 13 30 -8 -12 -18 -12 -32 1 -41 5 -5 -2 -7 -17 -4 -15 2 -25
0 -22 -4 3 -5 2 -13 -1 -19 -10 -17 -45 13 -46 40 0 14 -3 19 -6 13 -2 -7 -9
-13 -14 -13 -6 0 -7 6 -3 13 6 9 3 8 -8 -1 -9 -8 -14 -20 -12 -27 4 -10 0 -12
-15 -8 -12 3 -23 9 -26 13 -3 5 -14 6 -26 3 -18 -5 -20 -2 -17 23 3 32 25 54
45 47 7 -3 13 0 13 6 0 6 -7 11 -15 11 -10 0 -15 7 -13 18 6 32 41 41 44 11z
m44 11 c0 -5 -5 -10 -11 -10 -5 0 -7 5 -4 10 3 6 8 10 11 10 2 0 4 -4 4 -10z
m-1784 -8 c14 -9 25 -40 16 -45 -4 -2 -19 -1 -33 2 -23 5 -25 9 -18 29 9 23
17 27 35 14z m1024 -12 c0 -20 1 -20 25 -4 32 21 43 12 18 -13 -18 -19 -19
-19 -65 0 -57 23 -61 37 -13 37 28 0 35 -4 35 -20z m1980 10 c0 -5 -8 -10 -17
-10 -15 0 -16 2 -3 10 19 12 20 12 20 0z m-1600 -10 c0 -5 -5 -10 -11 -10 -5
0 -7 5 -4 10 3 6 8 10 11 10 2 0 4 -4 4 -10z m553 -20 c8 0 8 -3 0 -11 -9 -9
-16 -8 -27 4 -9 9 -16 21 -16 27 0 7 6 5 16 -4 8 -9 21 -16 27 -16z m-2676 14
c-3 -3 -12 -4 -19 -1 -8 3 -5 6 6 6 11 1 17 -2 13 -5z m1149 -32 c-18 -16 -18
-16 -6 6 6 13 14 21 18 18 3 -4 -2 -14 -12 -24z m894 16 c0 -4 -4 -16 -9 -26
-26 -47 -61 -137 -61 -156 0 -32 -11 -66 -20 -61 -4 3 -13 -2 -20 -10 -10 -12
-9 -15 4 -15 15 0 15 -2 0 -32 -10 -18 -17 -47 -16 -64 1 -34 -29 -71 -47 -59
-6 3 -9 0 -6 -7 3 -7 -6 -18 -19 -24 -21 -10 -26 -9 -31 5 -6 15 -7 14 -16 -1
-5 -10 -16 -15 -24 -12 -10 4 -15 0 -15 -15 0 -12 -4 -21 -10 -21 -5 0 -10 5
-10 10 0 6 -11 10 -25 10 -14 0 -25 5 -25 10 0 6 -7 10 -15 10 -18 0 -20 16
-2 24 10 5 10 7 0 12 -7 3 -13 12 -13 20 0 9 -5 12 -11 8 -6 -3 -15 0 -20 7
-13 20 -11 29 6 29 8 0 15 -5 15 -10 0 -13 49 -5 64 10 7 7 1 8 -22 4 -27 -6
-31 -4 -26 10 3 9 2 16 -4 16 -6 0 -12 -6 -15 -12 -2 -8 -12 1 -23 19 -13 23
-24 31 -36 27 -17 -5 -22 5 -21 44 1 6 -4 12 -10 12 -8 0 -8 3 0 11 15 15 33
3 33 -21 0 -25 27 -33 33 -10 3 10 1 22 -3 27 -9 10 5 53 18 53 5 0 17 -9 27
-20 20 -22 60 -27 72 -7 4 6 13 26 19 44 l11 32 -24 -16 c-29 -19 -31 -17 -37
29 -4 26 0 40 11 50 13 10 17 10 20 1 4 -10 10 -10 26 -1 12 6 25 15 28 20 3
5 15 10 27 13 17 3 22 -1 22 -16 0 -10 5 -19 12 -19 6 0 4 -8 -7 -20 -17 -19
-18 -19 -36 3 l-18 22 1 -30 c1 -16 -2 -42 -6 -58 -7 -23 -6 -26 8 -21 9 3 16
15 16 25 0 10 6 19 14 19 8 0 21 3 30 6 11 4 16 1 16 -11 0 -14 3 -15 14 -6
11 9 16 9 21 0 4 -6 1 -15 -6 -20 -11 -6 -10 -9 5 -15 13 -5 24 0 37 17 9 13
17 26 17 29 -1 3 5 19 12 35 7 17 12 35 11 40 -8 31 -10 49 -6 56 7 10 65 8
65 -3z m47 6 c-3 -3 -12 -4 -19 -1 -8 3 -5 6 6 6 11 1 17 -2 13 -5z m513 -3
c0 -6 -4 -13 -10 -16 -5 -3 -10 1 -10 9 0 9 5 16 10 16 6 0 10 -4 10 -9z
m-1935 -51 c-4 -6 -13 -9 -21 -6 -20 8 -17 -11 4 -23 12 -7 13 -10 3 -11 -16
0 -40 29 -41 48 0 7 6 19 13 27 10 11 15 11 31 -5 10 -10 15 -23 11 -30z m270
40 c-3 -5 -13 -10 -21 -10 -8 0 -12 5 -9 10 3 6 13 10 21 10 8 0 12 -4 9 -10z
m27 -12 c-7 -7 -12 -8 -12 -2 0 14 12 26 19 19 2 -3 -1 -11 -7 -17z m43 12 c3
-5 1 -10 -4 -10 -6 0 -11 5 -11 10 0 6 2 10 4 10 3 0 8 -4 11 -10z m2275 -5
c0 -8 -4 -15 -10 -15 -5 0 -7 7 -4 15 4 8 8 15 10 15 2 0 4 -7 4 -15z m-3675
-5 c3 -5 -1 -10 -10 -10 -9 0 -13 5 -10 10 3 6 8 10 10 10 2 0 7 -4 10 -10z
m249 -12 c11 -41 8 -50 -13 -39 -13 7 -17 18 -14 36 6 31 19 32 27 3z m2236
10 c0 -6 -3 -8 -7 -5 -3 4 -13 1 -22 -6 -14 -11 -14 -10 -2 6 15 20 31 22 31
5z m1685 2 c3 -5 1 -10 -4 -10 -6 0 -11 5 -11 10 0 6 2 10 4 10 3 0 8 -4 11
-10z m-4255 -10 c0 -5 -4 -10 -10 -10 -5 0 -10 5 -10 10 0 6 5 10 10 10 6 0
10 -4 10 -10z m4230 -10 c0 -5 -5 -10 -11 -10 -5 0 -7 5 -4 10 3 6 8 10 11 10
2 0 4 -4 4 -10z m-4030 -10 c0 -5 -2 -10 -4 -10 -3 0 -8 5 -11 10 -3 6 -1 10
4 10 6 0 11 -4 11 -10z m162 -12 c-7 -7 -12 -8 -12 -2 0 14 12 26 19 19 2 -3
-1 -11 -7 -17z m168 0 c0 -7 -5 -6 -13 1 -8 6 -18 7 -22 3 -5 -4 -5 -2 -1 5 8
14 36 6 36 -9z m2655 12 c3 -5 -1 -10 -9 -10 -9 0 -16 -5 -16 -12 0 -9 -3 -9
-12 0 -10 10 -10 15 2 22 19 12 27 12 35 0z m545 -6 c-15 -17 -17 -17 -23 -1
-3 8 3 14 15 14 16 2 17 -1 8 -13z m-2276 -9 c-6 -16 -24 -21 -24 -7 0 11 11
22 21 22 5 0 6 -7 3 -15z m-586 -24 c-11 -18 -11 -23 2 -31 12 -8 11 -10 -7
-10 -27 0 -30 22 -6 50 21 25 29 19 11 -9z m822 25 c0 -3 -4 -8 -10 -11 -5 -3
-10 -1 -10 4 0 6 5 11 10 11 6 0 10 -2 10 -4z m-1482 -20 c-10 -7 -14 -17 -10
-22 4 -4 -1 -2 -11 5 -14 11 -15 16 -5 22 7 5 20 9 28 9 12 -1 12 -3 -2 -14z
m3029 -6 c-5 -32 -23 -45 -30 -21 -3 14 0 21 10 21 8 0 11 5 8 10 -3 6 -1 10
4 10 6 0 9 -9 8 -20z m-3160 4 c-3 -3 -12 -4 -19 -1 -8 3 -5 6 6 6 11 1 17 -2
13 -5z m1503 -4 c0 -5 -4 -10 -10 -10 -5 0 -10 5 -10 10 0 6 5 10 10 10 6 0
10 -4 10 -10z m-636 -15 c-4 -8 -8 -15 -10 -15 -2 0 -4 7 -4 15 0 8 4 15 10
15 5 0 7 -7 4 -15z m-444 -3 c0 -3 -16 -20 -36 -38 -37 -32 -39 -54 -3 -54 10
0 19 -6 19 -12 0 -10 3 -9 9 1 7 11 10 9 16 -8 3 -11 15 -21 25 -21 10 0 20
-7 24 -15 8 -22 25 -18 19 5 -3 11 -10 20 -15 20 -5 0 -6 5 -3 10 5 8 11 8 19
1 9 -7 16 -7 24 1 9 9 12 8 12 -6 0 -11 5 -16 13 -13 8 3 20 1 28 -4 11 -8 9
-9 -6 -7 -15 2 -19 -2 -18 -19 2 -13 -1 -22 -5 -22 -20 3 -33 -2 -27 -11 3 -5
18 -10 33 -10 25 0 25 -1 9 -17 -15 -15 -18 -15 -34 -1 -23 21 -53 7 -46 -22
4 -16 1 -20 -18 -19 -13 0 -18 3 -11 6 6 2 12 12 12 20 0 13 -3 13 -17 -3 -22
-24 -57 -25 -61 -1 -3 12 3 17 20 17 18 0 20 2 8 10 -8 5 -23 7 -32 4 -12 -3
-18 0 -18 9 0 10 -7 13 -20 10 -17 -5 -17 -7 -5 -20 19 -19 19 -33 0 -33 -10
0 -12 6 -8 18 6 15 5 15 -10 3 -10 -8 -17 -9 -17 -3 0 6 -13 13 -30 17 -34 7
-38 18 -14 37 8 7 23 21 32 30 15 16 17 16 46 0 17 -9 33 -20 34 -24 2 -5 10
-8 18 -8 8 0 14 -6 15 -12 0 -10 2 -10 6 0 2 6 11 12 19 12 8 0 11 6 8 15 -4
8 -12 15 -20 15 -8 0 -14 5 -14 12 0 6 -3 9 -6 6 -3 -3 -18 6 -33 21 -20 18
-25 30 -18 39 6 8 6 12 -2 12 -6 0 -11 5 -11 10 0 6 6 10 13 10 8 0 22 8 33
18 18 17 44 25 44 14z m63 2 c11 -11 -3 -24 -18 -18 -8 4 -12 10 -9 15 6 11
18 12 27 3z m2352 -9 l20 -7 -20 -8 c-19 -8 -19 -9 2 -9 16 -1 21 -6 17 -16
-4 -8 -1 -15 5 -15 6 0 11 5 11 11 0 6 6 9 13 6 6 -2 11 -10 10 -16 -2 -6 2
-11 7 -11 6 0 10 -8 10 -19 0 -14 -6 -17 -25 -13 -14 2 -25 9 -25 14 0 5 -4 7
-9 4 -5 -3 -7 -16 -3 -28 3 -11 1 -19 -4 -16 -5 3 -15 0 -21 -8 -13 -13 -2
-30 11 -17 3 3 23 8 44 10 20 2 32 0 26 -4 -5 -5 -10 -32 -11 -61 -1 -46 1
-51 15 -40 13 12 14 10 3 -10 -10 -19 -15 -21 -27 -12 -7 7 -12 16 -9 20 3 5
0 12 -6 16 -8 4 -9 3 -5 -5 4 -6 0 -14 -9 -17 -9 -4 -14 -13 -11 -20 3 -8 1
-14 -4 -14 -6 0 -10 -6 -10 -14 0 -9 -7 -12 -20 -9 -11 3 -20 9 -20 13 0 5 -3
16 -7 26 -4 12 -2 15 8 12 8 -3 13 -11 11 -18 -3 -15 20 -8 26 8 2 7 -4 12
-12 12 -9 0 -19 7 -22 15 -4 8 -10 13 -14 10 -4 -3 -10 4 -13 15 -3 11 -1 20
4 20 5 0 9 -6 9 -12 0 -9 3 -8 10 2 7 12 12 12 22 2 10 -10 10 -14 -1 -21 -7
-5 -9 -11 -4 -14 4 -3 16 1 26 8 17 12 17 13 0 19 -14 6 -15 9 -3 16 9 6 18 3
25 -7 11 -14 12 -14 18 1 4 9 4 23 0 32 -5 13 -7 13 -14 2 -7 -10 -12 -11 -29
0 -26 16 -30 15 -30 -3 0 -38 -87 3 -103 48 -11 30 19 65 50 59 24 -5 25 -3
19 23 -6 24 -5 27 13 22 12 -3 19 -1 15 4 -6 11 4 31 14 26 4 -2 16 -7 27 -12z
m-2785 -47 c0 -11 -7 -18 -20 -18 -15 0 -20 7 -20 28 0 16 3 32 7 36 10 9 33
-23 33 -46z m1027 46 c-3 -3 -12 -4 -19 -1 -8 3 -5 6 6 6 11 1 17 -2 13 -5z
m553 -3 c0 -6 -4 -13 -10 -16 -5 -3 -10 1 -10 9 0 9 5 16 10 16 6 0 10 -4 10
-9z m-1656 -7 c24 -9 19 -22 -6 -19 -30 3 -30 3 -23 15 7 12 8 12 29 4z m3236
-4 c0 -5 -4 -10 -10 -10 -5 0 -10 5 -10 10 0 6 5 10 10 10 6 0 10 -4 10 -10z
m-2650 -4 c0 -2 -7 -6 -15 -10 -8 -3 -15 -1 -15 4 0 6 7 10 15 10 8 0 15 -2
15 -4z m544 -13 c4 -11 1 -22 -8 -29 -9 -6 -16 -17 -16 -25 0 -10 3 -10 12 -1
19 19 26 14 22 -15 -3 -24 -1 -22 12 10 17 37 50 55 37 20 -5 -15 -3 -16 8 -5
18 16 29 15 29 -3 0 -8 5 -15 10 -15 19 0 10 -42 -10 -47 -11 -3 -20 -12 -20
-19 0 -8 -9 -14 -20 -14 -13 0 -18 5 -14 15 4 8 10 13 14 10 4 -3 10 5 13 18
5 18 0 16 -24 -13 -28 -34 -39 -57 -19 -45 6 3 7 -1 4 -9 -7 -18 -24 -22 -24
-5 0 15 -43 7 -57 -11 -6 -9 -15 -11 -20 -6 -4 5 -2 11 5 13 6 3 12 18 12 34
0 16 3 28 8 28 18 -3 32 2 32 12 0 6 -7 9 -15 5 -10 -3 -17 3 -21 19 -5 20
-10 23 -35 18 -23 -4 -29 -2 -29 11 0 10 -4 14 -10 11 -5 -3 -10 -1 -10 4 0 6
9 11 21 11 15 0 19 -5 15 -15 -12 -32 22 -14 38 20 18 38 49 47 60 18z m1820
9 c3 -5 -1 -9 -9 -9 -8 0 -12 4 -9 9 3 4 7 8 9 8 2 0 6 -4 9 -8z m328 -14 c-9
-9 -15 -9 -24 0 -9 9 -7 12 12 12 19 0 21 -3 12 -12z m-2782 -8 c0 -5 -4 -10
-10 -10 -5 0 -10 5 -10 10 0 6 5 10 10 10 6 0 10 -4 10 -10z m340 0 c0 -13
-12 -19 -26 -13 -21 8 -17 19 6 19 11 0 20 -3 20 -6z m2475 0 c3 -5 1 -10 -4
-10 -6 0 -11 5 -11 10 0 6 2 10 4 10 3 0 8 -4 11 -10z m-3115 -15 c0 -9 -10
-19 -23 -24 -26 -10 -37 -61 -12 -61 8 0 14 3 14 8 -4 22 3 32 21 32 22 0 28
-35 8 -43 -7 -3 -4 -6 7 -6 17 -1 18 -3 5 -12 -11 -8 -8 -9 15 -4 28 6 29 5
10 -8 -11 -9 -24 -13 -29 -10 -5 4 -6 1 -2 -6 4 -7 17 -9 29 -6 19 5 19 4 -3
-9 -29 -16 -40 -13 -40 14 0 12 -10 21 -30 25 -32 7 -66 47 -55 65 3 6 11 7
17 4 7 -5 8 -2 3 6 -5 8 1 19 16 31 29 23 49 24 49 4z m2340 6 c0 -12 -41 -22
-54 -13 -6 3 0 9 14 13 36 10 40 10 40 0z m-2676 -16 c-4 -9 -19 -15 -35 -15
-25 0 -28 2 -17 15 18 20 59 20 52 0z m660 0 c-7 -16 -24 -21 -24 -6 0 8 7 13
27 20 1 1 0 -6 -3 -14z m-486 -26 c-1 -32 33 -72 40 -49 6 17 18 11 19 -9 1
-16 -4 -19 -26 -16 -39 5 -72 27 -66 44 3 7 0 20 -6 27 -14 17 -3 34 21 34 14
0 18 -7 18 -31z m569 18 c2 -3 -8 -4 -22 -4 -14 0 -28 4 -31 9 -5 8 44 4 53
-5z m236 -6 c-3 -12 -11 -17 -19 -14 -19 7 -18 21 4 26 9 3 18 5 19 6 0 0 -1
-8 -4 -18z m576 -8 c2 -2 -5 -3 -17 -3 -14 0 -22 6 -22 16 0 14 3 15 18 3 9
-7 19 -15 21 -16z m181 12 c0 -8 -4 -15 -10 -15 -5 0 -7 7 -4 15 4 8 8 15 10
15 2 0 4 -7 4 -15z m2515 5 c3 -5 1 -10 -4 -10 -6 0 -11 5 -11 10 0 6 2 10 4
10 3 0 8 -4 11 -10z m-4040 -10 c3 -5 1 -10 -4 -10 -6 0 -11 5 -11 10 0 6 2
10 4 10 3 0 8 -4 11 -10z m1406 1 c22 11 23 11 10 -4 -7 -10 -20 -17 -27 -17
-8 0 -14 -8 -14 -17 0 -12 -3 -14 -11 -6 -6 6 -8 21 -4 33 5 16 10 19 15 10 6
-9 12 -9 31 1z m1489 -1 c0 -5 -2 -10 -4 -10 -3 0 -8 5 -11 10 -3 6 -1 10 4
10 6 0 11 -4 11 -10z m350 0 c0 -5 -2 -10 -4 -10 -3 0 -8 5 -11 10 -3 6 -1 10
4 10 6 0 11 -4 11 -10z m-3471 -31 c-10 -6 -4 -10 19 -15 23 -5 29 -9 21 -15
-7 -4 -19 -4 -25 2 -6 5 -20 6 -29 2 -14 -5 -16 -3 -10 7 5 9 4 11 -4 6 -9 -6
-9 -11 0 -22 15 -19 -9 -19 -33 0 -25 18 -23 39 2 31 11 -3 20 -2 20 4 0 11
30 20 44 13 4 -2 2 -8 -5 -13z m1694 7 c3 -8 -1 -20 -9 -26 -8 -7 -14 -21 -14
-31 0 -14 -7 -19 -25 -19 -14 0 -25 -4 -25 -10 0 -5 -6 -10 -14 -10 -8 0 -16
-6 -19 -12 -2 -7 -7 -10 -11 -7 -11 10 5 38 25 44 11 4 17 10 14 15 -3 5 3 13
12 19 10 6 14 11 10 11 -4 0 -3 9 3 20 12 23 45 27 53 6z m1007 3 c0 -6 -7 -9
-14 -6 -10 4 -13 1 -9 -9 6 -16 33 -19 33 -3 0 5 4 8 9 4 5 -3 12 -1 16 5 9
15 32 12 38 -4 11 -27 -4 -54 -33 -60 -19 -3 -34 -15 -42 -33 -12 -25 -13 -34
-9 -68 1 -5 5 -3 11 5 5 9 5 19 -2 27 -12 15 0 17 20 4 12 -7 11 -14 -2 -40
-9 -17 -19 -31 -22 -31 -3 0 -2 5 1 10 6 9 -8 15 -29 11 -5 -1 -6 5 -3 14 4 9
1 15 -8 15 -8 0 -15 5 -15 10 0 6 -9 1 -20 -10 -11 -11 -24 -20 -29 -20 -14 0
-23 32 -11 44 5 5 10 22 10 37 0 15 5 29 12 31 6 2 12 14 13 26 1 12 10 29 21
37 23 17 64 20 64 4z m-1499 -30 c19 -27 20 -34 9 -55 -8 -13 -16 -24 -20 -24
-3 0 -10 25 -16 55 -5 30 -7 55 -3 55 4 0 18 -14 30 -31z m583 23 c2 -4 -4
-19 -14 -32 -16 -22 -18 -22 -15 -5 2 11 4 26 4 33 1 13 17 16 25 4z m1328
-14 c-7 -7 -12 -8 -12 -2 0 6 3 14 7 17 3 4 9 5 12 2 2 -3 -1 -11 -7 -17z
m-3002 2 c-8 -5 -19 -10 -25 -10 -5 0 -3 5 5 10 8 5 20 10 25 10 6 0 3 -5 -5
-10z m703 -3 c4 -10 -2 -13 -19 -9 -13 2 -24 8 -24 13 0 14 37 10 43 -4z
m3557 -7 c0 -5 -2 -10 -4 -10 -3 0 -8 5 -11 10 -3 6 -1 10 4 10 6 0 11 -4 11
-10z m22 -12 c-7 -7 -12 -8 -12 -2 0 6 3 14 7 17 3 4 9 5 12 2 2 -3 -1 -11 -7
-17z m-1257 -5 c-8 -70 -39 -93 -41 -30 -1 17 1 24 3 15 4 -17 24 -26 22 -10
-3 19 2 42 9 42 5 0 8 -8 7 -17z m-1538 -8 c0 -8 -4 -15 -9 -15 -4 0 -8 7 -8
15 0 8 4 15 8 15 5 0 9 -7 9 -15z m-527 -17 c0 -13 -23 -5 -28 10 -2 7 2 10
12 6 9 -3 16 -11 16 -16z m656 -5 c-8 -8 -36 5 -36 17 0 7 6 7 21 0 11 -7 18
-14 15 -17z m74 1 c0 -11 -5 -14 -16 -10 -9 3 -21 6 -27 7 -7 0 -3 4 8 9 29
13 35 12 35 -6z m1010 7 c0 -5 -9 -11 -21 -14 -16 -4 -18 -3 -8 9 13 16 29 19
29 5z m-1995 -21 c-27 -12 -43 -12 -25 0 8 5 22 9 30 9 10 0 8 -3 -5 -9z m555
-8 c0 -18 -33 -45 -43 -35 -8 7 22 53 34 53 5 0 9 -8 9 -18z m1388 -1 c27 -23
28 -30 3 -28 -12 1 -21 10 -24 24 -5 28 -5 28 21 4z m-1644 -16 c15 -14 24
-25 21 -25 -11 0 -55 32 -55 41 0 13 5 11 34 -16z m536 -5 c-20 -13 -40 -13
-40 0 0 6 7 10 15 10 8 0 15 5 15 12 0 9 3 9 12 0 10 -10 10 -15 -2 -22z
m1525 21 c3 -5 1 -12 -5 -16 -5 -3 -10 1 -10 9 0 18 6 21 15 7z m-2295 -11 c0
-5 -4 -10 -10 -10 -5 0 -10 5 -10 10 0 6 5 10 10 10 6 0 10 -4 10 -10z m140
-11 c0 -5 -4 -9 -10 -9 -5 0 -10 7 -10 16 0 8 5 12 10 9 6 -3 10 -10 10 -16z
m-1100 -9 c0 -11 -4 -20 -9 -20 -5 0 -7 9 -4 20 3 11 7 20 9 20 2 0 4 -9 4
-20z m1370 4 c0 -2 -7 -4 -15 -4 -8 0 -15 4 -15 10 0 5 7 7 15 4 8 -4 15 -8
15 -10z m486 -11 c-10 -10 -19 5 -10 18 6 11 8 11 12 0 2 -7 1 -15 -2 -18z
m-1411 -1 c-3 -3 -11 0 -18 7 -9 10 -8 11 6 5 10 -3 15 -9 12 -12z m-225 -2
c0 -5 -9 -10 -20 -10 -11 0 -20 5 -20 10 0 6 9 10 20 10 11 0 20 -4 20 -10z
m170 -10 c0 -11 -2 -20 -3 -20 -2 0 -12 9 -22 20 -18 19 -17 20 3 20 15 0 22
-6 22 -20z m1440 -10 c0 -5 -7 -7 -15 -4 -8 4 -15 8 -15 10 0 2 7 4 15 4 8 0
15 -4 15 -10z m-1250 -4 c0 -3 -4 -8 -10 -11 -5 -3 -10 -1 -10 4 0 6 5 11 10
11 6 0 10 -2 10 -4z m159 -12 c13 8 41 -4 41 -17 0 -6 -3 -7 -6 -4 -4 3 -16 1
-27 -5 -16 -8 -23 -7 -34 8 -17 24 -17 39 2 24 8 -6 18 -9 24 -6z m1036 7 c3
-5 0 -13 -6 -17 -7 -4 -9 -3 -5 4 3 5 0 13 -6 15 -9 4 -10 6 -1 6 6 1 14 -3
18 -8z m-1342 -13 c3 -10 7 -10 19 -1 12 10 18 10 34 -2 18 -13 17 -14 -11
-12 -22 1 -29 -2 -27 -13 2 -10 -4 -7 -17 7 -12 12 -21 25 -21 28 0 10 18 5
23 -7z m190 -8 c-4 -14 1 -22 18 -29 20 -8 21 -10 5 -10 -22 -1 -46 27 -39 46
8 21 22 15 16 -7z m2096 -6 c-6 -7 -19 -12 -29 -11 -14 1 -16 5 -9 13 6 7 19
12 29 11 14 -1 16 -5 9 -13z m-1006 -37 c-3 -5 0 -20 8 -33 9 -18 10 -27 2
-35 -9 -9 -18 -4 -36 15 -16 17 -25 21 -23 12 1 -9 5 -19 9 -22 8 -9 9 -44 1
-44 -16 0 -33 32 -35 68 -2 32 2 46 20 61 21 18 24 18 41 4 11 -9 16 -21 13
-26z m111 27 c9 -23 -4 -64 -20 -64 -8 0 -14 -4 -14 -10 0 -5 5 -10 10 -10 6
0 10 -4 10 -10 0 -5 -7 -10 -15 -10 -8 0 -15 -5 -15 -12 0 -20 -30 15 -35 41
-2 12 -7 31 -10 42 -9 28 2 40 30 29 17 -7 25 -5 29 6 7 19 22 18 30 -2z
m1316 -13 c5 7 12 10 16 6 4 -4 0 -15 -9 -25 -15 -14 -19 -15 -26 -3 -5 8 -6
21 -3 30 5 14 7 13 10 -3 3 -15 6 -16 12 -5z m60 -11 c0 -11 -4 -20 -10 -20
-5 0 -10 9 -10 20 0 11 5 20 10 20 6 0 10 -9 10 -20z m-2896 -16 c4 -11 1 -14
-11 -12 -10 2 -19 11 -21 21 -4 21 24 13 32 -9z m185 17 c8 -5 9 -11 3 -15
-14 -8 -43 4 -36 15 7 11 15 11 33 0z m521 -12 c0 -6 -4 -7 -10 -4 -5 3 -10
11 -10 16 0 6 5 7 10 4 6 -3 10 -11 10 -16z m390 17 c0 -2 -7 -7 -16 -10 -8
-3 -12 -2 -9 4 6 10 25 14 25 6z m-703 -12 c-3 -3 -12 -4 -19 -1 -8 3 -5 6 6
6 11 1 17 -2 13 -5z m506 -31 c5 -26 4 -26 -9 -8 -16 22 -18 35 -5 35 5 0 11
-12 14 -27z m113 -3 c17 0 22 -6 21 -20 -1 -11 -6 -18 -12 -16 -5 2 -9 9 -7
15 1 6 -2 11 -8 11 -11 0 -35 -41 -32 -55 1 -5 -3 -3 -10 6 -7 8 -22 19 -33
23 -16 6 -17 9 -5 16 8 6 11 10 5 10 -5 0 1 7 15 15 15 8 29 10 35 4 5 -5 19
-9 31 -9z m1709 1 c3 -5 1 -12 -5 -16 -5 -3 -10 1 -10 9 0 18 6 21 15 7z
m-3011 -16 c-4 -8 -10 -12 -15 -9 -14 8 -10 24 6 24 9 0 12 -6 9 -15z m3136
-5 c0 -5 -5 -10 -11 -10 -5 0 -7 5 -4 10 3 6 8 10 11 10 2 0 4 -4 4 -10z m75
0 c3 -5 1 -10 -4 -10 -6 0 -11 5 -11 10 0 6 2 10 4 10 3 0 8 -4 11 -10z
m-1831 -12 c-3 -4 2 -8 10 -8 9 0 16 -7 16 -15 0 -8 -7 -15 -15 -15 -8 0 -15
-5 -15 -12 0 -9 -3 -9 -11 -1 -8 8 -18 4 -36 -13 -31 -29 -26 -39 11 -24 15 5
32 8 36 5 5 -3 13 3 19 12 8 16 10 16 16 2 3 -9 19 -15 41 -16 49 -1 65 -19
31 -32 -15 -6 -27 -15 -27 -21 0 -5 -7 -10 -15 -10 -8 0 -14 -3 -14 -7 4 -28
-2 -45 -16 -39 -20 7 -45 -3 -45 -19 0 -7 -6 -15 -12 -18 -10 -3 -9 -8 2 -20
28 -28 56 -29 85 -3 14 13 34 23 44 21 14 -2 16 2 13 25 -3 21 -8 26 -22 23
-10 -3 -21 1 -26 8 -5 9 -2 11 9 6 10 -4 22 1 30 13 9 13 23 19 43 17 31 -2
33 5 20 57 -6 23 -4 23 28 16 40 -9 56 -18 56 -31 0 -5 12 -23 27 -39 19 -21
30 -27 38 -20 9 8 14 1 18 -26 7 -43 3 -54 -23 -54 -10 0 -21 -4 -25 -10 -3
-5 -13 -6 -22 -3 -14 6 -13 9 6 24 12 10 17 20 12 23 -5 4 -12 2 -16 -4 -3 -5
-11 -10 -16 -10 -12 0 -1 43 12 48 5 2 9 11 9 20 -1 15 -3 14 -15 -2 -16 -21
-30 -14 -37 16 -2 12 -7 15 -17 8 -12 -7 -12 -11 -2 -24 8 -10 9 -16 3 -16 -6
0 -14 5 -17 10 -8 14 -25 3 -25 -16 0 -11 6 -13 19 -9 15 4 21 -1 28 -22 8
-24 6 -29 -15 -40 -13 -7 -34 -13 -46 -14 -20 0 -20 -1 -1 -8 11 -5 28 -4 38
1 28 14 31 2 7 -22 -15 -15 -28 -20 -43 -15 -32 10 -74 16 -57 8 8 -3 20 -13
27 -22 7 -9 13 -12 13 -7 0 5 9 1 21 -10 20 -18 21 -18 18 0 -5 26 35 40 53
18 9 -11 10 -14 1 -8 -7 4 -13 4 -13 -1 0 -4 14 -16 30 -25 17 -9 30 -23 30
-30 -1 -9 -4 -8 -13 3 -9 12 -18 14 -35 8 -13 -5 -35 -6 -49 -2 -21 5 -25 3
-21 -9 4 -8 2 -21 -3 -29 -12 -20 -44 1 -45 30 -2 33 -10 34 -29 5 -14 -22
-15 -28 -4 -35 11 -6 11 -11 1 -21 -8 -8 -12 -9 -12 -1 0 7 -8 10 -18 8 -10
-2 -25 1 -33 7 -11 8 -10 9 4 4 23 -7 34 20 18 46 -6 10 -9 23 -6 28 4 6 0 10
-8 10 -8 0 -17 9 -20 20 -6 23 -27 27 -27 5 0 -8 -4 -15 -10 -15 -5 0 -10 11
-10 25 0 14 -4 25 -10 25 -5 0 -10 10 -10 22 0 12 -3 19 -6 15 -15 -15 -63 16
-79 52 -13 30 -21 37 -36 34 -22 -6 -26 -23 -5 -23 18 0 39 -26 32 -39 -9 -14
-36 -2 -36 15 0 12 -4 12 -22 3 -20 -11 -20 -13 -5 -24 21 -15 22 -25 2 -25
-25 0 -37 47 -20 79 8 16 11 32 7 35 -3 4 0 11 7 15 8 5 10 14 5 22 -12 20
-14 59 -2 59 6 0 6 6 -2 15 -10 13 -9 15 9 15 14 0 21 -6 21 -20 0 -17 4 -18
25 -10 27 10 33 2 13 -18 -9 -9 -9 -18 0 -36 11 -25 10 -25 -19 -19 -29 5 -30
4 -19 -13 8 -14 23 -19 51 -19 37 0 39 1 48 43 5 24 6 53 4 65 -4 17 -3 19 6
11 15 -14 64 -5 58 10 -3 7 3 12 13 12 10 0 16 -4 14 -8z m116 2 c0 -5 -9 -10
-20 -10 -11 0 -20 5 -20 10 0 6 9 10 20 10 11 0 20 -4 20 -10z m10 -58 c8 -7
-43 8 -67 20 -13 6 -23 15 -23 20 0 6 75 -27 90 -40z m-529 10 c16 3 29 3 29
2 0 -1 -3 -9 -6 -18 -5 -12 -10 -13 -26 -5 -11 6 -26 8 -34 5 -9 -3 -14 1 -14
13 0 24 14 37 18 16 3 -13 11 -16 33 -13z m1346 -30 c-19 -18 -22 -7 -10 38
l6 24 10 -22 c8 -18 7 -27 -6 -40z m-1443 42 c21 -8 21 -44 0 -44 -8 0 -12 -4
-9 -10 3 -5 -1 -10 -10 -10 -9 0 -13 -4 -10 -10 3 -5 1 -10 -4 -10 -6 0 -11 2
-11 4 0 2 -3 12 -6 20 -5 12 -2 15 10 10 13 -5 15 -1 10 25 -7 32 0 37 30 25z
m156 -34 c0 -5 -5 -10 -11 -10 -5 0 -7 5 -4 10 3 6 8 10 11 10 2 0 4 -4 4 -10z
m210 -11 c0 -6 -4 -7 -10 -4 -5 3 -10 11 -10 16 0 6 5 7 10 4 6 -3 10 -11 10
-16z m1890 11 c0 -5 -5 -10 -11 -10 -5 0 -7 5 -4 10 3 6 8 10 11 10 2 0 4 -4
4 -10z m-2350 -44 c-13 -17 -37 -20 -64 -10 -26 10 -18 27 10 21 18 -3 24 -1
20 9 -7 18 16 24 33 8 12 -11 12 -16 1 -28z m1570 23 c0 -5 -4 -7 -10 -4 -6 4
-10 -10 -10 -35 0 -38 -1 -40 -25 -34 -15 4 -25 2 -25 -5 0 -6 8 -11 18 -11
11 0 18 -8 19 -20 1 -11 -2 -20 -8 -20 -5 0 -8 3 -6 8 1 4 -2 7 -8 7 -5 0 -9
-5 -7 -11 1 -7 -8 -9 -24 -6 -18 3 -22 8 -15 15 16 16 13 37 -4 31 -9 -4 -15
0 -15 9 0 8 -6 18 -12 21 -7 4 -3 4 10 2 12 -2 20 0 17 4 -3 5 -2 16 2 26 6
15 7 15 14 -4 5 -14 14 -20 23 -16 8 3 13 11 10 18 -3 7 5 18 18 24 30 14 38
14 38 1z m-320 -13 c0 -7 -7 -19 -15 -26 -13 -11 -13 -15 -3 -21 7 -5 21 -6
32 -3 10 4 22 0 27 -7 7 -11 11 -11 21 3 16 19 58 34 58 19 0 -5 -8 -15 -17
-21 -16 -10 -15 -10 4 -5 26 7 39 -10 17 -23 -10 -6 -15 -17 -12 -28 2 -11 -4
-27 -14 -36 -10 -10 -18 -14 -18 -8 0 5 -13 7 -32 3 -26 -5 -30 -4 -25 10 7
19 -8 31 -43 31 -26 1 -28 10 -21 109 1 20 41 24 41 3z m-493 -18 c-3 -8 -6
-5 -6 6 -1 11 2 17 5 13 3 -3 4 -12 1 -19z m-587 -9 c0 -8 5 -8 15 1 12 10 15
10 15 -4 0 -11 -9 -16 -30 -16 -20 0 -30 5 -30 15 0 8 7 15 15 15 8 0 15 -5
15 -11z m1690 1 c0 -5 -5 -10 -11 -10 -5 0 -7 5 -4 10 3 6 8 10 11 10 2 0 4
-4 4 -10z m-1730 -35 c10 -12 10 -15 -4 -15 -9 0 -16 7 -16 15 0 8 2 15 4 15
2 0 9 -7 16 -15z m1730 -2 c0 -25 68 -163 81 -163 8 0 8 -4 -1 -15 -7 -9 -9
-19 -5 -23 4 -4 10 -1 12 6 9 24 23 12 17 -14 -5 -21 -4 -25 6 -19 9 5 11 4 6
-3 -8 -14 -56 -16 -56 -3 0 17 -69 43 -93 35 -12 -5 -26 -7 -30 -6 -5 1 -5 -2
-2 -8 4 -6 30 -21 58 -34 54 -24 107 -67 107 -87 0 -6 -7 -9 -15 -5 -8 3 -15
1 -15 -3 0 -5 6 -11 13 -14 6 -2 -5 -8 -25 -12 -31 -6 -45 -2 -85 22 -33 21
-55 28 -68 23 -17 -6 -16 -8 10 -14 17 -4 44 -19 60 -33 19 -16 23 -23 11 -19
-16 5 -17 4 -6 -9 7 -8 19 -15 28 -15 8 0 25 -11 38 -25 13 -14 32 -25 42 -25
23 0 34 -22 25 -47 -16 -44 -89 -86 -120 -69 -29 16 -84 63 -152 128 -99 96
-153 111 -308 89 -29 -4 -53 -4 -53 1 0 5 15 33 34 63 19 29 33 55 30 57 -2 3
10 16 27 29 18 13 43 41 56 63 26 41 31 42 126 20 19 -4 27 -2 27 7 0 22 -32
49 -57 49 -23 0 -29 24 -7 26 5 0 18 5 28 9 13 6 21 5 24 -3 5 -17 22 -15 22
2 0 32 39 22 53 -14 4 -12 6 -12 6 2 1 22 21 34 31 18 6 -10 17 -6 45 16 42
33 75 41 75 17z m-1870 -58 c-8 -9 -8 -15 0 -20 19 -12 11 -26 -10 -15 -11 6
-20 17 -20 25 0 13 -3 13 -20 3 -11 -7 -20 -18 -20 -25 0 -7 -4 -13 -10 -13
-5 0 -10 7 -10 15 0 8 5 15 10 15 6 0 10 6 10 14 0 8 14 20 30 28 17 7 30 17
31 23 0 5 5 -1 10 -14 6 -16 6 -28 -1 -36z m1417 23 c-3 -8 -6 -5 -6 6 -1 11
2 17 5 13 3 -3 4 -12 1 -19z m-1087 -12 c0 -3 -4 -8 -10 -11 -5 -3 -10 -1 -10
4 0 6 5 11 10 11 6 0 10 -2 10 -4z m1110 -16 c0 -5 -4 -10 -10 -10 -5 0 -10 5
-10 10 0 6 5 10 10 10 6 0 10 -4 10 -10z m-950 -7 c0 -5 -5 -15 -10 -23 -7
-11 -12 -12 -21 -3 -6 6 -8 16 -5 22 8 12 36 15 36 4z m935 -23 c3 -5 1 -10
-4 -10 -6 0 -11 5 -11 10 0 6 2 10 4 10 3 0 8 -4 11 -10z m-1465 -10 c0 -5 -5
-10 -11 -10 -5 0 -7 5 -4 10 3 6 8 10 11 10 2 0 4 -4 4 -10z m536 -17 c-10
-10 -19 5 -10 18 6 11 8 11 12 0 2 -7 1 -15 -2 -18z m798 1 c10 -25 7 -34 -9
-34 -9 0 -15 9 -15 25 0 28 15 34 24 9z m-1294 -14 c0 -5 -4 -10 -10 -10 -5 0
-10 5 -10 10 0 6 5 10 10 10 6 0 10 -4 10 -10z m70 0 c0 -5 -4 -10 -10 -10 -5
0 -10 5 -10 10 0 6 5 10 10 10 6 0 10 -4 10 -10z m880 -27 c0 -10 6 -12 19 -8
16 5 19 1 18 -15 -1 -20 -17 -29 -17 -10 0 5 -7 7 -15 4 -22 -9 -18 -24 6 -24
18 0 20 -4 15 -25 -4 -17 -2 -27 7 -31 20 -7 9 -52 -15 -60 -14 -4 -16 -9 -8
-19 16 -19 -8 -31 -26 -14 -11 12 -11 21 2 59 10 28 12 46 5 48 -5 2 -9 9 -7
15 1 7 1 9 -1 5 -3 -5 -11 -8 -19 -8 -9 0 -12 5 -9 10 3 6 1 10 -4 10 -19 0
-12 20 7 21 10 0 12 3 5 6 -16 6 -17 43 -2 43 5 0 8 4 5 9 -4 5 3 7 14 4 11
-3 20 -12 20 -20z m390 7 c0 -5 8 -10 17 -10 13 0 14 -3 5 -12 -7 -7 -12 -21
-12 -31 0 -16 -3 -17 -14 -7 -12 9 -15 8 -13 -9 0 -11 5 -19 10 -18 5 1 11 -3
14 -10 3 -8 -5 -11 -23 -10 -23 2 -27 -3 -31 -27 -4 -25 -31 -79 -34 -66 -8
49 -8 64 0 74 6 7 8 16 4 19 -3 4 -1 7 6 7 7 0 10 4 6 10 -3 5 -13 7 -23 4
-15 -5 -15 -4 2 10 10 8 15 20 11 25 -8 14 18 41 38 41 9 0 17 -6 20 -12 2 -7
8 -10 12 -6 4 4 2 14 -5 23 -8 10 -9 15 -1 15 6 0 11 -4 11 -10z m80 -20 c0
-5 -4 -10 -10 -10 -5 0 -10 5 -10 10 0 6 5 10 10 10 6 0 10 -4 10 -10z m-811
-14 c10 -11 10 -20 1 -36 -11 -21 -12 -21 -25 -3 -30 38 -6 75 24 39z m-382
-32 c-3 -3 -12 -4 -19 -1 -8 3 -5 6 6 6 11 1 17 -2 13 -5z m603 -24 c0 -5 -11
-10 -24 -10 -15 0 -26 -7 -29 -17 -4 -14 -5 -13 -6 4 -1 20 3 23 52 32 4 0 7
-3 7 -9z m-80 -26 c0 -2 -7 -4 -15 -4 -8 0 -15 4 -15 10 0 5 7 7 15 4 8 -4 15
-8 15 -10z m413 0 c9 -9 -4 -35 -14 -28 -10 6 -12 -7 -3 -30 3 -8 11 -13 18
-10 7 3 18 -6 25 -19 11 -22 10 -28 -9 -50 -25 -28 -59 -26 -57 4 2 23 2 23
21 3 15 -14 16 -14 16 0 0 9 5 16 10 16 6 0 10 8 10 18 -1 15 -2 15 -13 2 -7
-9 -20 -14 -29 -12 -14 3 -17 11 -14 40 6 59 21 84 39 66z m162 -4 c3 -5 1
-10 -4 -10 -6 0 -11 5 -11 10 0 6 2 10 4 10 3 0 8 -4 11 -10z m-720 -19 c-10
-17 13 -22 28 -6 20 19 27 19 27 -1 0 -8 -4 -13 -9 -9 -5 3 -13 1 -16 -5 -8
-13 -43 -3 -63 16 -11 12 -9 14 13 14 14 0 24 -4 20 -9z m293 -27 c3 -23 1
-27 -9 -17 -16 16 -20 55 -5 50 6 -2 12 -17 14 -33z m-714 11 c-4 -9 1 -18 11
-21 9 -4 14 -12 11 -19 -3 -8 1 -16 9 -19 8 -3 11 -13 8 -26 -4 -16 -9 -18
-17 -10 -8 8 -7 13 4 20 8 5 11 10 6 10 -5 0 -17 -7 -27 -16 -16 -15 -19 -14
-31 5 -7 12 -19 21 -26 21 -9 0 -8 -7 5 -27 13 -19 14 -28 5 -31 -6 -2 -12
-12 -12 -22 0 -14 7 -17 40 -14 22 2 40 -1 40 -6 0 -6 -9 -11 -20 -12 -62 -5
-80 -4 -80 6 0 6 -13 19 -29 28 -24 13 -32 14 -41 3 -6 -7 -8 -20 -4 -29 4
-10 1 -16 -7 -16 -8 0 -5 -6 7 -15 10 -8 16 -15 12 -15 -13 0 -58 23 -58 31 0
4 -13 2 -29 -4 -24 -9 -34 -7 -62 12 -19 13 -25 20 -14 15 11 -4 34 -8 50 -9
18 -1 21 -1 7 2 -15 3 -22 10 -18 18 2 7 2 16 -2 19 -9 10 -13 46 -4 46 4 0
21 -16 37 -35 35 -40 47 -44 45 -12 -4 39 0 57 10 57 6 0 10 -6 10 -14 0 -19
14 -28 34 -20 10 4 14 13 12 23 -3 9 -1 23 4 31 7 12 11 10 20 -10 10 -23 10
-23 5 8 -5 36 16 55 38 33 15 -15 30 -14 24 3 -6 16 1 26 19 26 8 0 11 -6 8
-15z m266 7 c0 -10 -37 -32 -43 -25 -11 10 6 33 24 33 10 0 19 -3 19 -8z m595
-2 c8 -13 -5 -13 -25 0 -13 8 -13 10 2 10 9 0 20 -4 23 -10z m285 0 c0 -5 -4
-10 -10 -10 -5 0 -10 5 -10 10 0 6 5 10 10 10 6 0 10 -4 10 -10z m-313 -54
c-10 -21 -13 -22 -21 -9 -5 10 -4 18 5 24 23 15 28 10 16 -15z m224 -46 c6 0
8 4 5 8 -2 4 -1 14 5 22 6 10 9 11 9 3 0 -7 7 -13 15 -13 10 0 8 -6 -8 -23
-22 -22 -22 -22 -37 -2 -17 23 -21 45 -12 59 4 6 8 -4 10 -21 2 -18 8 -33 13
-33z m-323 32 c3 -9 -2 -13 -14 -10 -9 1 -19 9 -22 16 -3 9 2 13 14 10 9 -1
19 -9 22 -16z m-378 4 c0 -2 -9 -6 -20 -9 -11 -3 -20 -1 -20 4 0 5 9 9 20 9
11 0 20 -2 20 -4z m-122 -31 c-3 -3 -9 2 -12 12 -6 14 -5 15 5 6 7 -7 10 -15
7 -18z m207 15 c3 -5 0 -19 -7 -30 -11 -17 -11 -22 2 -30 8 -5 12 -11 10 -14
-3 -3 -19 7 -36 22 l-31 27 21 17 c24 20 33 22 41 8z m-280 -10 c3 -5 1 -10
-4 -10 -6 0 -11 5 -11 10 0 6 2 10 4 10 3 0 8 -4 11 -10z m45 1 c0 -6 -4 -13
-10 -16 -5 -3 -10 1 -10 9 0 9 5 16 10 16 6 0 10 -4 10 -9z m103 -18 c-7 -3
-13 -9 -13 -15 0 -6 6 -8 14 -5 8 3 17 1 20 -6 5 -9 7 -9 12 0 4 9 12 8 31 -4
21 -14 22 -18 9 -25 -20 -11 -21 -32 -2 -25 7 3 18 1 23 -4 5 -5 23 -12 38
-15 16 -3 32 -7 37 -10 11 -7 -13 -30 -41 -39 -13 -4 -19 -10 -14 -14 13 -8
38 -54 35 -63 -4 -14 10 -8 23 8 10 15 13 15 28 -1 9 -9 17 -12 17 -6 0 6 5
11 12 11 7 0 6 -6 -4 -17 -9 -10 -13 -24 -11 -30 5 -15 -6 -16 -27 -3 -10 6
-21 3 -36 -11 -14 -13 -24 -17 -29 -10 -11 19 -23 12 -21 -13 4 -36 -18 -39
-79 -11 -43 21 -55 32 -60 55 -4 17 -12 36 -19 43 -8 7 -17 24 -21 36 -7 22
-5 24 24 18 24 -5 30 -3 26 6 -4 6 1 3 10 -8 12 -14 19 -16 22 -7 7 18 40 15
47 -4 4 -9 4 -25 1 -35 -9 -26 22 -37 39 -14 15 20 9 63 -11 84 -12 11 -13 9
-7 -14 5 -20 4 -26 -5 -21 -6 4 -11 17 -11 29 0 17 -2 19 -9 8 -7 -11 -15 -7
-40 18 -17 18 -36 29 -41 26 -6 -3 -10 0 -10 8 0 8 -8 18 -17 21 -49 19 -80
44 -55 47 4 0 15 2 24 4 10 2 20 -1 23 -5 3 -5 12 -7 19 -4 8 3 16 -2 19 -13
4 -16 5 -15 6 3 1 22 21 47 30 37 3 -3 0 -8 -6 -10z m437 7 c0 -5 -4 -10 -10
-10 -5 0 -10 5 -10 10 0 6 5 10 10 10 6 0 10 -4 10 -10z m-61 -14 c9 -11 9
-20 2 -35 -10 -18 -8 -19 22 -16 37 5 49 -1 66 -32 9 -19 8 -24 -8 -33 -39
-20 -55 -6 -26 24 10 10 12 17 4 21 -6 4 -17 -2 -25 -14 -15 -21 -54 -29 -54
-11 0 6 -4 10 -8 10 -5 0 -9 -7 -9 -15 0 -8 4 -15 9 -15 4 0 10 0 13 0 9 0 45
-40 45 -50 0 -5 -7 -7 -15 -4 -11 5 -13 2 -9 -10 3 -9 10 -16 16 -16 5 0 7 -4
4 -9 -8 -12 3 -41 15 -41 4 0 6 6 3 14 -3 8 -1 17 5 21 7 3 8 0 5 -9 -3 -9 -1
-16 5 -16 6 0 11 -4 11 -9 0 -16 -50 -4 -66 15 -14 17 -15 17 -10 2 3 -10 9
-24 12 -32 4 -11 0 -13 -15 -9 -20 5 -25 14 -22 41 1 6 -3 12 -8 12 -6 0 -9
20 -8 46 3 47 -16 72 -33 44 -7 -11 -13 -10 -34 4 -15 9 -31 14 -36 11 -6 -3
-10 -1 -10 5 0 6 -7 18 -15 26 -20 20 -19 35 1 27 10 -4 17 1 21 16 6 22 18
27 28 11 3 -5 15 -10 27 -10 14 0 18 -5 14 -15 -6 -15 13 -55 25 -55 3 0 4 11
1 25 -8 43 7 95 27 95 10 0 24 -6 30 -14z m55 -22 c3 -8 2 -12 -4 -9 -6 3 -10
10 -10 16 0 14 7 11 14 -7z m276 6 c0 -5 -4 -10 -10 -10 -5 0 -10 5 -10 10 0
6 5 10 10 10 6 0 10 -4 10 -10z m-843 -16 c23 -11 30 -19 22 -25 -7 -4 -18 -5
-26 -2 -7 3 -13 -2 -13 -11 0 -9 -6 -16 -12 -16 -7 0 -23 -3 -35 -6 -19 -5
-23 -2 -23 17 0 20 2 21 11 9 8 -12 9 -7 6 18 -4 38 14 42 70 16z m1610 0 c-3
-3 -12 -4 -19 -1 -8 3 -5 6 6 6 11 1 17 -2 13 -5z m-987 -45 c0 -6 -4 -7 -10
-4 -5 3 -10 11 -10 16 0 6 5 7 10 4 6 -3 10 -11 10 -16z m-857 -16 c-5 -13 -2
-15 15 -11 12 3 23 1 25 -6 6 -16 -59 -69 -76 -63 -7 3 -4 6 7 6 16 1 16 3 -5
21 -13 11 -18 19 -11 20 7 0 12 6 11 13 -3 25 1 33 20 34 14 1 18 -3 14 -14z
m137 -13 c0 -5 -5 -10 -11 -10 -5 0 -7 5 -4 10 3 6 8 10 11 10 2 0 4 -4 4 -10z
m141 -33 c-10 -9 -11 -8 -5 6 3 10 9 15 12 12 3 -3 0 -11 -7 -18z m649 13 c0
-5 -5 -10 -11 -10 -5 0 -7 5 -4 10 3 6 8 10 11 10 2 0 4 -4 4 -10z m-840 -10
c0 -5 -2 -10 -4 -10 -3 0 -8 5 -11 10 -3 6 -1 10 4 10 6 0 11 -4 11 -10z m520
-1 c0 -6 7 -8 16 -5 10 4 14 1 12 -6 -6 -16 -32 -22 -66 -13 l-26 6 25 14 c31
17 39 18 39 4z m244 -1 c3 -7 7 -26 11 -43 6 -28 6 -29 -9 -10 -8 11 -18 17
-22 12 -4 -4 -2 -7 4 -7 7 0 12 -4 12 -10 0 -5 -7 -10 -15 -10 -11 0 -14 10
-12 40 2 38 23 56 31 28z m36 -2 c0 -8 -4 -18 -10 -21 -5 -3 -10 3 -10 14 0
12 5 21 10 21 6 0 10 -6 10 -14z m-772 -17 c-20 -13 -28 -11 -22 5 3 8 12 12
21 9 12 -5 12 -7 1 -14z m92 6 c0 -18 -22 -35 -44 -35 -20 1 -20 1 -2 15 10 7
16 18 13 22 -3 5 3 9 14 9 10 0 19 -5 19 -11z m315 -5 c3 -5 2 -10 -4 -10 -5
0 -13 5 -16 10 -3 6 -2 10 4 10 5 0 13 -4 16 -10z m415 -5 c0 -8 -7 -15 -15
-15 -16 0 -20 12 -8 23 11 12 23 8 23 -8z m-889 -9 c5 3 9 1 9 -4 0 -11 -36
-23 -44 -15 -3 3 1 11 7 18 7 7 14 9 15 4 2 -5 8 -7 13 -3z m1659 -63 c0 -20
-30 -15 -31 5 0 9 -3 12 -5 5 -7 -16 -34 -5 -28 12 7 17 64 -3 64 -22z m33
-19 c-6 -17 -23 -9 -23 11 0 8 6 12 14 9 8 -3 12 -12 9 -20z m-2515 -2 c2 -7
-1 -12 -8 -12 -6 0 -9 4 -6 9 4 5 1 12 -4 14 -6 3 -5 4 2 3 6 -1 14 -8 16 -14z
m1762 -1 c0 -5 -7 -14 -15 -21 -12 -10 -13 -15 -4 -21 18 -11 36 -1 42 23 3
12 10 17 17 13 6 -4 9 -14 6 -22 -3 -8 -1 -11 4 -8 6 4 10 -6 9 -22 0 -15 -3
-23 -6 -16 -3 9 -9 10 -22 1 -11 -7 -26 -8 -37 -3 -11 4 -25 7 -32 6 -9 -2
-12 7 -10 26 2 16 8 27 16 26 6 -2 12 4 12 12 0 8 5 15 10 15 6 0 10 -4 10 -9z
m790 5 c0 -3 -4 -8 -10 -11 -5 -3 -10 -1 -10 4 0 6 5 11 10 11 6 0 10 -2 10
-4z m25 -16 c3 -5 -1 -10 -10 -10 -9 0 -13 5 -10 10 3 6 8 10 10 10 2 0 7 -4
10 -10z m-1715 -20 c0 -5 -4 -10 -10 -10 -5 0 -10 5 -10 10 0 6 5 10 10 10 6
0 10 -4 10 -10z m517 -10 c-2 -8 -8 -14 -15 -13 -6 2 -20 -9 -32 -24 l-20 -26
-20 21 c-21 22 -11 39 16 28 12 -4 12 -2 4 15 -10 18 -8 19 30 17 30 -2 40 -7
37 -18z m190 3 c3 -7 -4 -9 -16 -6 -12 3 -18 9 -15 15 7 11 26 6 31 -9z m-127
1 c0 -3 -7 -12 -15 -20 -16 -17 -18 -14 -9 10 6 15 24 23 24 10z m80 -3 c0 -5
9 -11 21 -14 12 -3 18 -10 15 -16 -4 -6 -14 -7 -24 -4 -38 14 -57 43 -27 43 8
0 15 -4 15 -9z m330 -21 c-18 -11 -24 -6 -16 16 5 14 9 15 19 5 9 -9 9 -14 -3
-21z m-1162 0 c23 -21 42 -26 42 -10 0 5 -11 12 -25 16 -14 4 -24 8 -22 11 8
7 97 -19 97 -29 0 -5 -8 -7 -19 -3 -12 3 -21 0 -25 -10 -3 -9 -10 -13 -16 -10
-5 3 -10 1 -10 -4 0 -6 8 -11 18 -11 13 -1 11 -4 -8 -14 -29 -17 -60 -5 -60
22 0 12 3 13 8 5 4 -7 13 -9 21 -4 10 7 9 11 -6 22 -23 17 -38 39 -25 39 4 0
18 -9 30 -20z m-603 -20 c3 -6 11 -10 16 -10 6 0 7 5 4 10 -3 6 -1 10 5 10 6
0 14 -8 17 -17 4 -10 11 -21 17 -25 6 -4 7 -11 2 -15 -4 -4 -13 -1 -19 7 -23
29 -70 48 -99 39 -16 -4 -30 -3 -34 2 -3 5 9 9 26 9 20 0 29 4 24 11 -5 8 -1
8 14 0 12 -6 24 -16 27 -21z m855 19 c0 -7 8 -18 18 -25 15 -12 15 -15 2 -24
-9 -6 -10 -10 -3 -10 6 0 15 5 18 10 3 6 10 10 16 10 5 0 4 -9 -3 -20 -7 -11
-19 -18 -25 -15 -7 2 -13 -2 -13 -10 0 -18 21 -20 38 -3 9 9 12 8 12 -5 0 -9
-6 -17 -14 -17 -7 0 -20 -10 -29 -22 -13 -20 -18 -21 -36 -10 -11 6 -27 12
-35 12 -23 0 -30 39 -12 59 9 10 16 23 16 29 0 14 31 52 42 52 5 0 8 -5 8 -11z
m95 -28 c-6 -5 -25 10 -25 20 0 5 6 4 14 -3 8 -7 12 -15 11 -17z m365 9 c0 -5
-4 -10 -10 -10 -5 0 -10 5 -10 10 0 6 5 10 10 10 6 0 10 -4 10 -10z m356 -18
c-9 -9 -37 8 -31 18 5 8 11 7 21 -1 8 -6 12 -14 10 -17z m-370 -2 c15 0 24 -7
26 -21 5 -32 33 -47 59 -31 25 16 34 10 24 -15 -5 -10 -8 -25 -7 -33 1 -10 0
-11 -4 -3 -3 7 -20 20 -37 28 -38 18 -147 16 -147 -2 0 -6 9 -13 20 -15 14 -2
17 -7 11 -17 -7 -11 -19 -4 -56 33 -26 26 -45 50 -41 53 3 4 13 -3 22 -15 16
-23 44 -30 44 -11 0 5 5 7 10 4 6 -4 18 -1 26 6 10 8 11 14 4 19 -6 4 -8 14
-4 24 5 12 10 14 17 7 6 -6 21 -11 33 -11z m231 -2 c-3 -8 -6 -5 -6 6 -1 11 2
17 5 13 3 -3 4 -12 1 -19z m-521 -20 c0 -40 -21 -51 -57 -33 -31 16 -31 17
-10 31 12 9 25 13 30 9 5 -3 12 -1 16 5 11 17 21 11 21 -12z m-901 -28 c3 -6
-1 -7 -9 -4 -18 7 -21 14 -7 14 6 0 13 -4 16 -10z m45 -21 c11 -19 10 -20 -10
-9 -11 6 -18 15 -15 21 9 13 13 11 25 -12z m534 -2 c-1 -9 2 -14 7 -11 13 8
49 -15 49 -31 0 -9 6 -12 15 -9 8 4 15 1 15 -5 0 -6 7 -8 15 -5 9 4 15 0 16
-7 0 -9 3 -7 7 3 7 17 8 16 20 -2 10 -17 9 -22 -12 -35 -20 -13 -32 -14 -62
-6 -24 7 -40 7 -44 1 -11 -17 -65 5 -68 28 -2 12 -8 22 -13 22 -5 0 -9 5 -9
10 0 6 7 10 16 10 9 0 14 8 13 18 -3 34 1 43 19 40 9 -2 16 -11 16 -21z m-489
-8 c0 -15 13 -23 118 -75 37 -19 67 -36 67 -38 0 -6 -45 13 -105 42 -21 11
-46 17 -54 14 -9 -3 -12 -1 -7 6 4 7 -3 17 -19 24 -18 8 -22 14 -13 20 10 6
10 8 1 8 -7 0 -13 5 -13 11 0 6 6 9 13 7 6 -3 12 -11 12 -19z m975 2 c0 -6 -4
-13 -10 -16 -5 -3 -10 1 -10 9 0 9 5 16 10 16 6 0 10 -4 10 -9z m180 -30 c0
-5 9 -11 21 -14 16 -4 19 -11 14 -29 -12 -43 -28 -68 -44 -67 -10 0 -11 3 -4
5 7 3 9 13 6 21 -5 12 -2 15 10 10 9 -3 17 -2 17 2 0 18 -33 21 -46 4 -13 -17
-15 -17 -29 1 -8 11 -15 25 -14 30 0 6 3 5 6 -1 8 -21 20 -15 32 17 9 27 31
42 31 21z m130 0 c0 -5 3 -16 6 -25 4 -11 1 -16 -10 -16 -9 0 -16 4 -16 9 0 5
-3 16 -6 25 -4 11 -1 16 10 16 9 0 16 -4 16 -9z m-910 -25 c0 -13 7 -26 15
-30 11 -4 14 -13 9 -33 -9 -39 -11 -39 -36 -8 -26 34 -28 42 -17 73 11 29 29
28 29 -2z m450 10 c0 -8 -7 -16 -15 -20 -12 -4 -13 -2 -2 14 14 24 17 25 17 6z
m240 -8 c0 -4 -13 -8 -30 -8 -16 0 -30 4 -30 8 0 5 14 9 30 9 17 0 30 -4 30
-9z m-80 -8 c-19 -13 -30 -13 -30 0 0 6 10 10 23 10 18 0 19 -2 7 -10z m-280
-30 c-6 -11 -15 -20 -20 -20 -14 0 -12 27 3 33 23 10 28 7 17 -13z m515 -1
c-10 -15 -25 -10 -19 6 4 8 10 12 15 9 5 -3 7 -10 4 -15z m-175 -3 c0 -8 -4
-18 -10 -21 -16 -10 -12 -25 6 -25 14 0 14 -3 4 -15 -15 -18 -61 -20 -78 -3
-19 19 -14 30 7 18 33 -17 44 -12 37 15 -4 14 -4 30 -1 35 9 15 35 12 35 -4z
m-800 -47 c22 -12 47 -18 55 -15 9 3 25 -4 36 -15 15 -15 24 -18 34 -9 10 8
14 7 18 -7 4 -14 5 -13 6 5 1 33 26 54 58 50 27 -3 39 -26 20 -39 -16 -11 7
-61 31 -70 20 -8 21 -7 11 12 -6 11 -7 24 -3 27 4 4 9 1 11 -5 3 -7 11 -13 20
-13 26 0 9 -33 -22 -42 -21 -5 -32 -4 -37 6 -4 8 -19 17 -33 20 -14 4 -49 17
-78 31 -30 13 -79 33 -110 45 -31 12 -59 26 -62 31 -9 14 0 11 45 -12z m257
-1 c-3 -8 -6 -5 -6 6 -1 11 2 17 5 13 3 -3 4 -12 1 -19z m43 -2 c0 -7 -7 -19
-15 -26 -12 -10 -15 -9 -15 7 0 11 3 23 7 26 11 12 23 8 23 -7z m570 -26 c0
-5 -7 -10 -16 -10 -13 0 -15 -7 -10 -36 7 -34 6 -35 -15 -23 -17 9 -24 9 -27
0 -2 -6 -10 -11 -17 -11 -7 0 -15 -6 -18 -12 -3 -7 -5 2 -4 20 0 27 3 31 19
27 10 -4 18 -1 18 5 0 7 7 10 18 6 14 -5 14 -4 -2 9 -15 11 -16 15 -5 19 8 2
21 7 29 9 24 8 30 8 30 -3z m-528 -12 c-9 -9 -15 -9 -24 0 -9 9 -7 12 12 12
19 0 21 -3 12 -12z m192 -13 c-5 -22 -3 -25 20 -25 14 0 26 -5 26 -11 0 -6
-10 -10 -22 -9 -43 4 -68 0 -68 -10 0 -5 7 -10 15 -10 23 0 18 -17 -7 -23 -13
-2 -32 -8 -43 -12 -16 -7 -15 -4 5 13 25 21 25 21 3 22 -12 0 -28 -7 -37 -15
-8 -8 -17 -15 -21 -15 -8 0 -35 65 -35 85 0 14 3 14 29 -1 17 -10 28 -20 26
-23 -5 -9 52 -7 61 2 5 4 2 13 -6 18 -13 9 -12 10 1 6 10 -3 25 3 35 13 25 25
25 24 18 -5z m205 6 c9 -6 11 -16 5 -32 -4 -13 -7 -27 -6 -31 1 -4 -5 -5 -13
-2 -24 10 -17 -12 8 -24 19 -10 18 -10 -13 -6 -19 3 -41 7 -47 10 -21 6 -15
31 8 37 12 3 18 10 14 16 -3 6 -11 9 -16 6 -5 -4 -9 -2 -9 2 0 5 10 13 23 19
29 15 30 15 46 5z m1632 -28 c-12 -20 -14 -14 -5 12 4 9 9 14 11 11 3 -2 0
-13 -6 -23z m-1437 2 c-4 -8 -10 -15 -15 -15 -4 0 -6 7 -3 15 4 8 10 15 15 15
4 0 6 -7 3 -15z m228 -39 c10 -14 -11 -48 -24 -40 -7 5 -8 2 -4 -5 5 -7 0 -19
-10 -27 -14 -11 -15 -17 -6 -20 21 -9 13 -21 -13 -21 -20 0 -23 2 -14 13 9 11
8 14 -5 14 -10 0 -16 8 -16 22 0 17 -3 19 -12 10 -21 -21 -45 -14 -51 15 -10
54 19 73 43 28 9 -16 16 -21 21 -14 4 6 11 9 17 5 13 -8 42 3 42 16 0 6 -7 5
-16 -2 -13 -12 -14 -10 -3 13 10 23 15 25 28 14 9 -6 19 -16 23 -21z m-317
-17 c-11 -16 -31 -10 -32 11 -2 17 1 18 18 10 11 -6 17 -15 14 -21z m80 21
c-4 -7 3 -9 22 -4 l28 6 -23 -17 c-18 -13 -26 -14 -38 -4 -11 9 -18 9 -26 1
-9 -9 -9 -12 0 -12 7 0 12 -4 12 -10 0 -5 -7 -10 -15 -10 -8 0 -15 -4 -15 -10
0 -11 -33 -14 -43 -4 -11 11 57 72 81 73 14 1 21 -3 17 -9z m-125 -20 c0 -5
-5 -10 -11 -10 -5 0 -7 5 -4 10 3 6 8 10 11 10 2 0 4 -4 4 -10z m-425 -29 c17
-10 42 -21 56 -24 14 -4 36 -16 49 -27 30 -26 13 -26 -20 0 -14 11 -31 20 -38
20 -7 0 -31 9 -53 20 -22 12 -45 20 -52 19 -7 -1 -19 -1 -27 0 -13 1 -13 2 0
11 17 11 42 5 85 -19z m435 -1 c0 -5 -2 -10 -4 -10 -3 0 -8 5 -11 10 -3 6 -1
10 4 10 6 0 11 -4 11 -10z m1505 0 c3 -5 2 -10 -4 -10 -5 0 -13 5 -16 10 -3 6
-2 10 4 10 5 0 13 -4 16 -10z m-1135 -15 c10 -11 9 -18 -3 -30 -20 -20 -44
-21 -28 -1 6 7 9 21 5 30 -8 20 9 21 26 1z m753 8 c-7 -2 -21 -2 -30 0 -10 3
-4 5 12 5 17 0 24 -2 18 -5z m-1319 -15 c10 -10 9 -15 -8 -29 -21 -17 -36 -16
-36 2 0 5 10 9 23 10 12 0 16 3 10 6 -7 2 -13 9 -13 14 0 12 8 11 24 -3z m100
-13 c-6 -16 -24 -21 -24 -7 0 11 11 22 21 22 5 0 6 -7 3 -15z m108 -7 c-9 -9
-15 -9 -24 0 -9 9 -7 12 12 12 19 0 21 -3 12 -12z m218 -20 c0 -5 -5 -8 -11
-8 -6 0 -8 -7 -5 -16 5 -12 2 -15 -10 -10 -8 3 -20 6 -25 6 -14 0 -11 48 4 53
13 4 47 -13 47 -25z m-457 -40 c23 -13 44 -24 46 -25 2 -2 2 -5 0 -7 -3 -3
-27 8 -54 24 -59 35 -53 40 8 8z m117 -8 c12 -8 12 -10 -3 -16 -10 -4 -16 -13
-13 -21 4 -9 2 -11 -7 -6 -6 4 -15 8 -19 9 -5 1 -10 2 -13 3 -6 1 27 41 35 41
3 0 12 -4 20 -10z m-126 -45 c-7 -16 -24 -21 -24 -6 0 8 7 13 27 20 1 1 0 -6
-3 -14z m96 -15 c0 -5 -2 -10 -4 -10 -3 0 -8 5 -11 10 -3 6 -1 10 4 10 6 0 11
-4 11 -10z m110 2 c0 -14 -23 -32 -41 -32 -9 0 -23 8 -30 18 -13 15 -12 16 3
4 11 -9 18 -10 23 -2 3 6 11 8 16 5 5 -4 9 -1 9 4 0 6 5 11 10 11 6 0 10 -4
10 -8z m209 -21 c-3 -6 -10 -7 -18 -2 -7 5 -10 14 -6 21 9 14 29 -2 24 -19z
m1013 -3 c-7 -7 -10 -5 -7 8 5 29 6 30 12 16 3 -8 1 -18 -5 -24z m-1690 0
c-18 -18 -52 -21 -46 -3 3 7 15 15 27 17 28 5 34 1 19 -14z m82 -3 c19 -29 20
-35 5 -35 -5 0 -7 5 -4 10 4 6 -5 10 -19 10 -19 0 -26 5 -26 20 0 28 24 25 44
-5z m216 5 c0 -5 -9 -10 -20 -10 -11 0 -20 5 -20 10 0 6 9 10 20 10 11 0 20
-4 20 -10z m1366 -16 c-4 -9 -9 -15 -11 -12 -3 3 -3 13 1 22 4 9 9 15 11 12 3
-3 3 -13 -1 -22z m1389 16 c3 -5 1 -10 -4 -10 -6 0 -11 5 -11 10 0 6 2 10 4
10 3 0 8 -4 11 -10z m-1282 -20 c-3 -11 -7 -20 -8 -20 -1 0 -5 9 -8 20 -3 12
0 20 8 20 8 0 11 -8 8 -20z m1422 0 c6 5 16 6 21 2 18 -11 46 -73 48 -106 1
-16 8 -32 14 -34 17 -5 15 -42 -3 -48 -8 -4 -15 -13 -15 -21 0 -9 -6 -13 -15
-9 -8 3 -15 0 -15 -7 0 -8 -3 -8 -9 2 -6 9 -18 11 -33 8 -19 -5 -26 -1 -37 23
-7 17 -17 30 -21 30 -5 0 -20 11 -33 24 l-24 24 29 33 c23 25 26 34 16 40 -8
6 -9 9 -2 9 7 0 15 11 18 25 6 24 8 25 28 11 14 -10 26 -12 33 -6z m-2810 -11
c-7 -10 -35 -1 -35 11 0 5 9 6 20 3 11 -3 17 -9 15 -14z m-365 -20 c0 -14 -24
-23 -28 -11 -2 7 -8 10 -13 6 -10 -6 -13 9 -3 18 7 8 44 -3 44 -13z m27 9 c0
-7 3 -23 7 -35 7 -21 4 -23 -29 -23 -20 0 -34 -4 -31 -9 18 -29 -42 -63 -70
-40 -8 6 -14 28 -14 48 1 32 2 34 14 19 7 -10 16 -15 19 -11 4 3 7 1 7 -5 0
-6 -4 -14 -10 -17 -15 -9 -12 -25 5 -25 8 0 15 4 15 9 0 18 51 63 66 57 13 -5
15 -1 10 19 -4 14 -3 25 2 25 5 0 9 -6 9 -12z m428 2 c3 -6 -1 -7 -9 -4 -18 7
-21 14 -7 14 6 0 13 -4 16 -10z m2625 -21 c0 -5 -9 -9 -20 -9 -22 0 -27 16 -7
23 15 5 27 -1 27 -14z m-2930 -10 c0 -11 -4 -17 -10 -14 -5 3 -10 13 -10 21 0
8 5 14 10 14 6 0 10 -9 10 -21z m2900 -29 c0 -5 -7 -10 -16 -10 -8 0 -12 5 -9
10 3 6 10 10 16 10 5 0 9 -4 9 -10z m-2927 -20 c3 -11 1 -20 -4 -20 -5 0 -9 9
-9 20 0 11 2 20 4 20 2 0 6 -9 9 -20z m-101 -28 c-7 -2 -12 -10 -12 -18 0 -8
-7 -14 -15 -14 -20 0 -19 4 8 34 13 15 24 20 26 14 2 -7 -1 -14 -7 -16z m148
-2 c0 -5 -4 -10 -10 -10 -5 0 -10 5 -10 10 0 6 5 10 10 10 6 0 10 -4 10 -10z
m1170 -10 c0 -5 -4 -10 -10 -10 -5 0 -10 5 -10 10 0 6 5 10 10 10 6 0 10 -4
10 -10z m1617 -16 c-3 -3 -12 -4 -19 -1 -8 3 -5 6 6 6 11 1 17 -2 13 -5z m318
-164 c-28 -12 -65 -12 -65 0 0 6 19 10 43 9 32 0 37 -2 22 -9z m15 -60 c0 -5
-19 -9 -42 -9 -40 1 -41 2 -13 9 44 11 55 11 55 0z m-96 -40 c-6 -6 -28 -13
-50 -15 l-39 -5 40 14 c49 18 62 19 49 6z m-4154 -189 c0 -6 -4 -13 -10 -16
-5 -3 -10 1 -10 9 0 9 5 16 10 16 6 0 10 -4 10 -9z m2043 -18 c3 -5 8 -26 11
-48 6 -35 3 -44 -21 -72 -15 -17 -39 -48 -53 -67 -27 -38 -40 -45 -40 -21 0 8
-5 24 -12 35 -10 16 -7 30 21 87 19 37 38 74 44 81 10 13 43 16 50 5z m-297
-54 c-9 -20 -15 -27 -16 -16 0 20 19 61 26 54 2 -2 -2 -19 -10 -38z m2471 35
c-3 -3 -12 -4 -19 -1 -8 3 -5 6 6 6 11 1 17 -2 13 -5z m-3807 -118 c0 -3 -4
-8 -10 -11 -5 -3 -10 -1 -10 4 0 6 5 11 10 11 6 0 10 -2 10 -4z m1680 -15 c5
-11 10 -29 10 -41 0 -21 1 -20 34 5 29 22 35 23 46 10 19 -23 23 -18 -156
-169 l-34 -28 -16 37 c-20 49 -10 107 28 163 32 47 70 57 88 23z m2181 -4
c-10 -9 -11 -8 -5 6 3 10 9 15 12 12 3 -3 0 -11 -7 -18z m-2501 -47 c0 -5 -7
-10 -15 -10 -8 0 -15 5 -15 10 0 6 7 10 15 10 8 0 15 -4 15 -10z m448 -32 c17
-17 15 -31 -8 -45 -17 -11 -21 -10 -30 8 -9 15 -8 24 1 35 14 17 21 18 37 2z
m2069 -10 c-3 -8 -6 -5 -6 6 -1 11 2 17 5 13 3 -3 4 -12 1 -19z m-2117 -43
c12 -15 3 -26 -90 -107 -44 -37 -70 -40 -70 -8 0 16 122 130 140 130 4 0 13
-7 20 -15z m-337 -68 c20 -49 22 -97 5 -144 -13 -36 -48 -47 -48 -15 0 10 -11
29 -25 42 -30 28 -31 35 -5 67 11 14 20 41 20 59 0 51 30 45 53 -9z m396 -33
c12 -15 21 -35 21 -45 0 -24 15 -24 32 -1 21 30 35 33 41 11 6 -22 3 -26 -122
-143 -56 -53 -64 -57 -78 -43 -19 19 -9 37 19 37 l21 0 -22 24 -22 23 27 -5
c20 -4 31 1 45 19 21 28 25 69 7 87 -32 32 -88 -8 -88 -63 l0 -35 -20 20 c-24
24 -25 41 -5 80 33 64 107 81 144 34z m1457 -42 c26 -4 57 -56 49 -82 -3 -11
-9 -19 -13 -18 -4 1 -20 -2 -36 -7 -19 -5 -39 -3 -62 8 -39 19 -44 46 -17 101
19 41 45 51 53 21 3 -11 15 -21 26 -23z m-3066 19 c0 -5 -14 -14 -32 -20 -32
-11 -32 -11 -12 8 20 21 44 27 44 12z m903 -15 c26 -20 21 -26 -13 -15 -16 6
-30 15 -30 20 0 13 22 10 43 -5z m-828 -36 c10 -11 16 -20 13 -20 -3 0 -13 9
-23 20 -10 11 -16 20 -13 20 3 0 13 -9 23 -20z m25 -50 c0 -5 -6 -10 -14 -10
-8 0 -18 5 -21 10 -3 6 3 10 14 10 12 0 21 -4 21 -10z m1609 -56 c17 -14 31
-32 31 -39 0 -8 6 -20 13 -27 40 -43 40 -44 -3 -84 -81 -75 -115 -104 -123
-104 -4 0 -10 13 -13 30 -4 16 -15 32 -25 35 -22 7 -34 59 -26 118 4 30 15 50
37 70 38 34 70 34 109 1z m2181 -29 c0 -8 -4 -15 -10 -15 -5 0 -10 7 -10 15 0
8 5 15 10 15 6 0 10 -7 10 -15z m-1844 -11 c17 -14 17 -15 1 -10 -10 3 -25 2
-35 -3 -9 -5 -26 -12 -37 -16 -16 -5 -17 -8 -5 -15 10 -6 21 -3 33 8 16 14 19
14 27 2 7 -10 5 -18 -4 -25 -8 -6 -10 -18 -6 -29 6 -18 8 -17 33 9 22 25 27
26 33 12 3 -9 -2 -27 -14 -41 -17 -23 -21 -24 -40 -10 -11 8 -32 15 -46 16
-26 2 -32 18 -27 73 3 41 52 57 87 29z m54 1 c0 -8 -4 -15 -10 -15 -5 0 -7 7
-4 15 4 8 8 15 10 15 2 0 4 -7 4 -15z m-1380 -5 c0 -5 -7 -10 -16 -10 -8 0
-12 5 -9 10 3 6 10 10 16 10 5 0 9 -4 9 -10z m-57 -7 c-7 -2 -13 -12 -13 -21
0 -13 -3 -13 -12 -4 -10 10 -10 15 2 22 8 5 20 9 25 9 6 0 4 -3 -2 -6z m27
-21 c0 -13 -12 -22 -22 -16 -10 6 -1 24 13 24 5 0 9 -4 9 -8z m2468 -14 c20
-20 13 -46 -19 -69 -37 -26 -48 -18 -56 40 l-6 41 35 0 c19 0 39 -5 46 -12z
m-119 -22 c9 -11 6 -16 -19 -24 -26 -10 -30 -9 -30 7 0 32 28 42 49 17z
m-1653 -28 c5 -16 1 -27 -16 -40 -29 -24 -33 -23 -53 12 -22 37 -15 50 28 50
26 0 35 -5 41 -22z m541 -30 c-3 -7 -5 -2 -5 12 0 14 2 19 5 13 2 -7 2 -19 0
-25z m-2284 2 c-7 -27 -23 -36 -24 -13 0 10 -3 13 -6 6 -8 -21 -22 -15 -16 7
3 13 14 20 28 20 18 0 22 -4 18 -20z m2189 -17 c39 -42 51 -71 43 -109 -11
-59 -45 -38 -45 26 0 19 -7 33 -20 40 -18 10 -20 8 -20 -19 0 -16 4 -32 10
-36 5 -3 14 -22 19 -42 9 -32 8 -40 -11 -60 -40 -43 -96 -26 -128 37 -24 47
-25 70 -5 96 15 19 15 19 27 -1 6 -11 12 -33 12 -49 1 -28 28 -57 42 -44 3 4
-1 25 -10 48 -24 60 -21 95 10 119 35 27 45 26 76 -6z m1066 -21 c-3 -28 -28
-43 -28 -18 0 9 6 16 13 17 10 0 10 2 0 6 -18 7 -16 20 3 20 10 0 14 -8 12
-25z m-2003 -36 c13 -9 16 -18 10 -32 -8 -18 -9 -17 -12 4 -4 22 -33 32 -33
10 0 -6 -3 -9 -6 -5 -8 8 3 37 14 37 4 0 17 -6 27 -14z m-49 -39 c8 3 14 0 14
-6 0 -17 -29 -26 -42 -13 -6 6 -7 18 -3 29 7 16 8 16 12 1 3 -10 10 -15 19
-11z m-89 -25 c8 -5 4 -11 -12 -18 -20 -10 -23 -9 -22 7 1 20 14 24 34 11z
m2333 -10 c0 -14 -23 -32 -41 -32 -10 0 -21 -9 -24 -20 -3 -11 -10 -20 -15
-20 -12 0 -20 29 -9 35 5 4 7 11 4 16 -7 11 30 27 63 28 12 1 22 -3 22 -7z
m-2330 -32 c0 -5 -5 -10 -11 -10 -5 0 -7 5 -4 10 3 6 8 10 11 10 2 0 4 -4 4
-10z m90 -11 c0 -5 -9 -9 -20 -9 -22 0 -27 16 -7 23 15 5 27 -1 27 -14z m2091
-8 c35 -28 11 -46 -58 -42 -17 1 -21 6 -18 23 8 40 40 48 76 19z m-2201 -9 c0
-4 17 -6 39 -4 21 2 42 -1 45 -7 10 -16 -51 -17 -112 -2 -2 1 0 6 3 11 7 12
25 13 25 2z m60 -56 c0 -3 -4 -8 -10 -11 -5 -3 -10 -1 -10 4 0 6 5 11 10 11 6
0 10 -2 10 -4z m-243 -101 c14 -14 17 -14 34 1 11 10 21 15 23 13 9 -10 10
-44 1 -44 -16 -1 -35 -15 -35 -26 0 -6 9 -7 21 -4 15 5 19 4 15 -4 -4 -6 -14
-11 -22 -11 -8 0 -12 -4 -9 -10 3 -6 1 -10 -4 -10 -6 0 -11 18 -11 41 0 25 -4
38 -10 34 -13 -8 -42 14 -34 26 7 13 13 11 31 -6z m116 -12 c-7 -2 -19 -2 -25
0 -7 3 -2 5 12 5 14 0 19 -2 13 -5z m-1246 -40 c-3 -10 -5 -4 -5 12 0 17 2 24
5 18 2 -7 2 -21 0 -30z m1116 11 c8 -8 -3 -34 -14 -34 -5 0 -9 9 -9 20 0 19
11 26 23 14z m-1163 -29 c0 -8 -4 -15 -10 -15 -5 0 -10 7 -10 15 0 8 5 15 10
15 6 0 10 -7 10 -15z m3614 -101 c10 -25 -1 -29 -14 -5 -6 12 -7 21 -1 21 5 0
12 -7 15 -16z m-3497 -26 c-3 -8 -6 -5 -6 6 -1 11 2 17 5 13 3 -3 4 -12 1 -19z
m990 0 c-3 -8 -6 -5 -6 6 -1 11 2 17 5 13 3 -3 4 -12 1 -19z"/>
<path d="M3030 4410 c0 -5 5 -10 10 -10 6 0 10 5 10 10 0 6 -4 10 -10 10 -5 0
-10 -4 -10 -10z"/>
<path d="M2390 4200 c-1 -3 -3 -16 -6 -30 -3 -21 -2 -22 7 -7 6 10 8 23 5 30
-2 7 -5 10 -6 7z"/>
<path d="M1505 4160 c3 -5 8 -10 11 -10 2 0 4 5 4 10 0 6 -5 10 -11 10 -5 0
-7 -4 -4 -10z"/>
<path d="M2975 4160 c-3 -5 -1 -10 4 -10 6 0 11 5 11 10 0 6 -2 10 -4 10 -3 0
-8 -4 -11 -10z"/>
<path d="M2680 4102 c0 -15 8 -19 38 -19 20 0 27 2 14 4 -13 3 -26 11 -29 19
-7 20 -23 17 -23 -4z"/>
<path d="M70 4059 c0 -5 5 -7 10 -4 6 3 10 8 10 11 0 2 -4 4 -10 4 -5 0 -10
-5 -10 -11z"/>
<path d="M230 4009 c0 -5 5 -7 10 -4 6 3 10 8 10 11 0 2 -4 4 -10 4 -5 0 -10
-5 -10 -11z"/>
<path d="M2495 3940 c-3 -5 -1 -10 4 -10 6 0 11 5 11 10 0 6 -2 10 -4 10 -3 0
-8 -4 -11 -10z"/>
<path d="M2555 3810 c3 -6 -1 -10 -9 -10 -9 0 -16 -7 -16 -15 0 -8 6 -15 14
-15 8 0 21 -3 29 -6 11 -4 13 1 10 20 -3 13 -12 27 -20 30 -8 3 -11 1 -8 -4z"/>
<path d="M2455 3750 c0 -37 19 -34 23 3 2 17 -1 27 -10 27 -8 0 -13 -12 -13
-30z"/>
<path d="M2396 3752 c-2 -4 -1 -14 3 -21 6 -9 10 -7 14 8 5 20 -7 29 -17 13z"/>
<path d="M2525 3723 c-37 -10 -48 -44 -13 -40 17 1 24 -4 26 -20 2 -14 -2 -23
-9 -23 -10 0 -9 -5 3 -16 10 -11 23 -14 38 -9 18 6 20 9 9 16 -12 7 -12 9 0 9
7 0 11 6 7 15 -3 8 -2 15 3 15 5 0 11 8 14 19 6 25 -24 22 -41 -4 -10 -15 -12
-16 -8 -3 3 10 1 20 -5 23 -5 4 -7 11 -4 16 4 5 5 8 3 8 -2 -1 -12 -4 -23 -6z"/>
<path d="M2343 3706 c-13 -15 -7 -26 13 -26 6 0 14 9 17 20 6 23 -12 26 -30 6z"/>
<path d="M2456 3682 c-2 -4 -1 -14 5 -22 7 -12 9 -10 9 8 0 23 -5 28 -14 14z"/>
<path d="M2490 3639 c0 -5 5 -7 10 -4 6 3 10 8 10 11 0 2 -4 4 -10 4 -5 0 -10
-5 -10 -11z"/>
<path d="M2488 3612 c-32 -7 -19 -21 17 -20 19 1 34 2 33 2 -2 1 -10 6 -18 12
-8 6 -23 9 -32 6z"/>
<path d="M2500 3566 c0 -2 7 -6 15 -10 8 -3 15 -1 15 4 0 6 -7 10 -15 10 -8 0
-15 -2 -15 -4z"/>
<path d="M570 3696 c0 -2 7 -7 16 -10 8 -3 12 -2 9 4 -6 10 -25 14 -25 6z"/>
<path d="M3080 3820 c0 -5 5 -10 10 -10 6 0 10 5 10 10 0 6 -4 10 -10 10 -5 0
-10 -4 -10 -10z"/>
<path d="M3030 3790 c-13 -8 -12 -10 3 -10 9 0 17 5 17 10 0 12 -1 12 -20 0z"/>
<path d="M3035 3761 c-3 -6 -11 -8 -17 -5 -6 4 -9 1 -6 -6 7 -21 25 -23 32 -4
8 20 1 30 -9 15z"/>
<path d="M3075 3740 c-3 -5 -1 -10 4 -10 6 0 11 5 11 10 0 6 -2 10 -4 10 -3 0
-8 -4 -11 -10z"/>
<path d="M2757 3720 c3 -11 9 -20 15 -20 5 0 4 9 -2 20 -6 11 -12 20 -14 20
-2 0 -2 -9 1 -20z"/>
<path d="M2826 3731 c-4 -5 3 -7 14 -4 23 6 26 13 6 13 -8 0 -17 -4 -20 -9z"/>
<path d="M2740 3651 c0 -11 26 -22 34 -14 3 3 3 10 0 14 -7 12 -34 11 -34 0z"/>
<path d="M1795 3499 c-4 -6 -5 -12 -2 -15 2 -3 7 2 10 11 7 17 1 20 -8 4z"/>
<path d="M1403 3355 c-10 -11 -9 -13 7 -12 11 1 20 7 20 14 0 17 -12 16 -27
-2z"/>
<path d="M1355 3310 c-3 -5 1 -10 9 -10 9 0 16 -4 16 -10 0 -18 18 -10 23 10
4 16 0 20 -18 20 -13 0 -27 -4 -30 -10z"/>
<path d="M1430 3300 c0 -5 5 -10 10 -10 6 0 10 5 10 10 0 6 -4 10 -10 10 -5 0
-10 -4 -10 -10z"/>
<path d="M1340 3270 c0 -5 7 -7 15 -4 8 4 15 1 15 -5 0 -6 7 -11 15 -11 20 0
19 16 -1 24 -23 9 -44 7 -44 -4z"/>
<path d="M1500 3200 c0 -5 4 -10 9 -10 6 0 13 5 16 10 3 6 -1 10 -9 10 -9 0
-16 -4 -16 -10z"/>
<path d="M1477 3183 c-10 -9 -9 -33 1 -33 4 0 8 9 9 20 2 21 0 24 -10 13z"/>
<path d="M1440 3170 c0 -5 5 -10 10 -10 6 0 10 5 10 10 0 6 -4 10 -10 10 -5 0
-10 -4 -10 -10z"/>
<path d="M1555 3090 c-3 -5 -1 -10 4 -10 6 0 11 5 11 10 0 6 -2 10 -4 10 -3 0
-8 -4 -11 -10z"/>
<path d="M2151 3264 c0 -11 3 -14 6 -6 3 7 2 16 -1 19 -3 4 -6 -2 -5 -13z"/>
<path d="M2300 3086 c0 -7 9 -16 20 -19 11 -3 20 -1 20 4 0 5 7 9 15 9 8 0 15
-6 15 -14 0 -12 28 -25 53 -26 16 0 6 30 -15 44 -29 20 -108 22 -108 2z"/>
<path d="M2498 3003 c-10 -2 -18 -11 -18 -18 0 -7 -4 -15 -9 -17 -20 -7 -15
-41 9 -57 13 -9 21 -10 17 -4 -5 8 -3 11 5 8 9 -4 19 10 30 39 20 55 15 62
-34 49z"/>
<path d="M2120 3111 c0 -7 -4 -9 -10 -6 -5 3 -10 -1 -10 -9 0 -9 4 -16 9 -16
11 0 24 31 16 38 -3 3 -5 0 -5 -7z"/>
<path d="M1288 2833 c7 -3 16 -2 19 1 4 3 -2 6 -13 5 -11 0 -14 -3 -6 -6z"/>
<path d="M1320 2801 c0 -5 7 -12 16 -15 21 -8 24 -8 24 5 0 5 -4 7 -10 4 -5
-3 -10 -1 -10 4 0 6 -4 11 -10 11 -5 0 -10 -4 -10 -9z"/>
<path d="M1436 2675 c4 -8 8 -15 10 -15 2 0 4 7 4 15 0 8 -4 15 -10 15 -5 0
-7 -7 -4 -15z"/>
<path d="M1400 2640 c0 -5 5 -10 10 -10 6 0 10 5 10 10 0 6 -4 10 -10 10 -5 0
-10 -4 -10 -10z"/>
<path d="M1558 2793 c7 -3 16 -2 19 1 4 3 -2 6 -13 5 -11 0 -14 -3 -6 -6z"/>
<path d="M1220 2500 c-24 -6 -24 -6 -4 -12 12 -3 27 -2 34 2 18 11 -1 18 -30
10z"/>
<path d="M1010 2376 c0 -2 7 -6 15 -10 8 -3 15 -1 15 4 0 6 -7 10 -15 10 -8 0
-15 -2 -15 -4z"/>
<path d="M900 2241 c0 -5 5 -13 10 -16 6 -3 10 -2 10 4 0 5 -4 13 -10 16 -5 3
-10 2 -10 -4z"/>
<path d="M2040 1235 c-6 -19 -10 -42 -8 -50 6 -28 38 6 45 48 8 50 -21 52 -37
2z"/>
<path d="M2074 1095 c-19 -47 -18 -65 5 -65 30 0 51 28 51 66 0 28 -4 34 -21
34 -13 0 -25 -11 -35 -35z"/>
<path d="M2306 688 c-43 -61 18 -133 68 -82 19 18 21 75 4 92 -19 19 -55 14
-72 -10z"/>
<path d="M4312 4588 c2 -5 8 -9 13 -9 5 0 11 4 13 9 1 5 -4 9 -13 9 -9 0 -14
-4 -13 -9z"/>
<path d="M4355 4590 c3 -5 10 -10 16 -10 5 0 9 5 9 10 0 6 -7 10 -16 10 -8 0
-12 -4 -9 -10z"/>
<path d="M1335 4550 c-3 -5 -1 -10 4 -10 6 0 11 5 11 10 0 6 -2 10 -4 10 -3 0
-8 -4 -11 -10z"/>
<path d="M3090 4550 c0 -5 5 -10 11 -10 5 0 7 5 4 10 -3 6 -8 10 -11 10 -2 0
-4 -4 -4 -10z"/>
<path d="M0 3530 c0 -5 5 -10 11 -10 5 0 7 5 4 10 -3 6 -8 10 -11 10 -2 0 -4
-4 -4 -10z"/>
<path d="M2200 2300 c-8 -5 -18 -6 -24 -3 -5 3 -6 1 -2 -6 4 -6 0 -14 -8 -17
-18 -7 -22 -34 -5 -34 5 0 9 -8 8 -17 -1 -10 4 -33 12 -50 l13 -32 14 47 c28
99 26 133 -8 112z"/>
<path d="M2210 2102 c0 -17 4 -34 10 -37 6 -4 9 6 7 24 -5 42 -17 52 -17 13z"/>
<path d="M2230 2030 c0 -8 5 -22 10 -30 9 -13 10 -13 10 0 0 8 -5 22 -10 30
-9 13 -10 13 -10 0z"/>
<path d="M2780 1990 c0 -5 5 -10 10 -10 6 0 10 5 10 10 0 6 -4 10 -10 10 -5 0
-10 -4 -10 -10z"/>
<path d="M2077 1919 c7 -7 15 -10 18 -7 3 3 -2 9 -12 12 -14 6 -15 5 -6 -5z"/>
<path d="M1854 1662 c3 -6 -2 -13 -11 -16 -18 -6 -63 -67 -63 -85 0 -5 -6 -14
-14 -21 -8 -6 -12 -18 -9 -26 3 -8 0 -14 -6 -14 -6 0 -11 -10 -11 -22 0 -17
11 -28 46 -44 l45 -21 26 56 c34 73 40 193 9 199 -11 2 -16 0 -12 -6z"/>
<path d="M3421 1462 c15 -44 -2 -104 -29 -100 -9 2 -19 -7 -23 -22 -4 -14 -8
-20 -8 -15 -1 6 -5 4 -10 -4 -15 -23 -31 -2 -33 42 -1 36 -2 37 -5 10 -2 -17
3 -65 11 -107 9 -41 16 -78 16 -81 0 -3 5 -5 10 -5 6 0 10 9 10 19 0 23 21 32
59 25 20 -4 28 -11 24 -20 -3 -8 -1 -14 5 -14 5 0 10 -6 9 -12 0 -7 1 -38 1
-68 l2 -55 23 32 c25 36 47 43 47 14 0 -14 5 -18 20 -14 12 3 29 -2 42 -13 11
-11 -2 15 -30 57 -55 81 -85 159 -97 253 -7 57 -28 106 -46 106 -4 0 -4 -13 2
-28z"/>
<path d="M3970 1391 c0 -5 7 -12 16 -15 14 -5 15 -4 4 9 -14 17 -20 19 -20 6z"/>
<path d="M1480 1180 c0 -17 43 -33 102 -36 53 -2 56 -1 46 16 -17 27 -148 45
-148 20z"/>
<path d="M1337 1153 c-11 -13 -17 -26 -15 -29 7 -7 40 34 37 44 -2 6 -12 -1
-22 -15z"/>
<path d="M3351 1154 c0 -11 3 -14 6 -6 3 7 2 16 -1 19 -3 4 -6 -2 -5 -13z"/>
<path d="M1600 1130 c0 -5 5 -10 10 -10 6 0 10 5 10 10 0 6 -4 10 -10 10 -5 0
-10 -4 -10 -10z"/>
<path d="M1297 1070 c-4 -14 -6 -52 -6 -85 l2 -60 8 75 c9 78 7 112 -4 70z"/>
<path d="M3352 1040 c0 -14 2 -19 5 -12 2 6 2 18 0 25 -3 6 -5 1 -5 -13z"/>
<path d="M3650 1036 c0 -3 9 -10 20 -16 11 -6 20 -8 20 -6 0 3 -9 10 -20 16
-11 6 -20 8 -20 6z"/>
<path d="M3360 949 c0 -24 5 -51 10 -59 6 -10 7 3 3 40 -7 69 -13 77 -13 19z"/>
<path d="M1151 902 c-1 -12 3 -30 8 -40 5 -9 13 -26 16 -37 4 -12 9 -15 12 -8
2 7 -2 27 -10 45 -9 18 -18 40 -20 48 -4 9 -6 7 -6 -8z"/>
<path d="M1301 916 c-2 -17 22 -86 30 -86 4 0 2 15 -5 33 -7 17 -16 39 -19 47
-3 8 -6 11 -6 6z"/>
<path d="M1215 761 c15 -22 32 -38 37 -35 6 4 6 9 -2 14 -6 4 -17 18 -23 30
-7 13 -18 25 -25 28 -8 2 -2 -14 13 -37z"/>
<path d="M4230 606 c0 -2 7 -7 16 -10 8 -3 12 -2 9 4 -6 10 -25 14 -25 6z"/>
<path d="M1305 580 c-3 -5 -1 -10 4 -10 6 0 11 5 11 10 0 6 -2 10 -4 10 -3 0
-8 -4 -11 -10z"/>
<path d="M1108 533 c7 -3 16 -2 19 1 4 3 -2 6 -13 5 -11 0 -14 -3 -6 -6z"/>
<path d="M4265 531 c-3 -5 -1 -12 5 -16 5 -3 10 1 10 9 0 18 -6 21 -15 7z"/>
<path d="M4513 526 c-6 -8 -9 -17 -6 -20 12 -11 19 -6 20 14 2 23 2 23 -14 6z"/>
<path d="M1251 521 c-7 -5 -23 -7 -35 -4 -19 4 -20 3 -3 -7 10 -7 21 -9 24 -6
8 7 43 -12 43 -24 0 -6 -9 -10 -20 -10 -11 0 -20 -4 -20 -10 0 -5 9 -10 20
-10 11 0 20 -4 20 -10 0 -5 -11 -10 -25 -10 -14 0 -25 5 -25 11 0 7 -10 9 -25
7 -14 -3 -25 -1 -25 3 0 5 -7 9 -17 9 -13 0 -11 -5 8 -21 13 -12 23 -26 21
-32 -2 -6 4 -4 13 3 13 11 18 11 24 1 6 -10 16 -8 42 8 26 16 34 27 34 51 0
17 -4 29 -10 27 -5 -2 -15 4 -20 14 -7 12 -15 15 -24 10z"/>
<path d="M1082 475 c0 -16 2 -22 5 -12 2 9 2 23 0 30 -3 6 -5 -1 -5 -18z"/>
<path d="M1170 490 c8 -5 24 -10 34 -10 26 0 18 6 -19 14 -22 5 -26 4 -15 -4z"/>
<path d="M4277 478 c6 -7 9 -21 8 -30 -2 -11 3 -18 12 -18 10 0 13 6 9 16 -3
9 -6 22 -6 30 0 8 -7 14 -16 14 -12 0 -14 -4 -7 -12z"/>
<path d="M4510 476 c0 -2 7 -6 15 -10 8 -3 15 -1 15 4 0 6 -7 10 -15 10 -8 0
-15 -2 -15 -4z"/>
<path d="M1123 463 c4 -3 1 -13 -6 -21 -10 -13 -9 -14 3 -10 19 6 26 38 9 38
-7 0 -9 -3 -6 -7z"/>
<path d="M4528 443 c20 -8 14 -26 -8 -20 -27 7 -25 3 13 -33 27 -26 29 -31 12
-29 -67 5 -88 -12 -33 -27 46 -14 49 -34 3 -29 -20 3 -44 9 -54 15 -16 8 -17
6 -13 -18 3 -15 11 -31 18 -35 8 -4 14 -17 14 -29 0 -15 5 -19 19 -15 15 3 19
0 18 -14 -1 -11 -4 -19 -8 -19 -4 0 -11 -9 -14 -20 -8 -25 -35 -26 -36 -2 -1
9 -2 24 -3 32 -2 8 -3 23 -4 33 -1 10 -8 17 -14 16 -29 -4 -38 2 -38 26 0 16
-6 25 -15 25 -8 0 -15 6 -15 14 0 7 -6 19 -14 26 -8 6 -12 18 -9 26 3 8 0 14
-5 14 -6 0 -14 10 -18 23 -7 18 -9 15 -15 -23 -5 -33 -3 -48 7 -56 7 -6 11
-14 7 -18 -4 -3 -7 -17 -8 -31 0 -17 5 -25 17 -25 9 0 20 -4 23 -10 4 -6 -6
-10 -22 -10 l-28 -1 27 -23 26 -23 -39 -13 c-48 -16 -51 -31 -4 -23 31 5 35 3
35 -16 0 -12 -7 -24 -15 -27 -11 -5 -13 -10 -5 -19 8 -9 8 -15 0 -20 -7 -4 -7
-12 0 -25 17 -31 -16 -33 -41 -2 -14 17 -20 20 -16 9 4 -10 7 -25 7 -33 0 -11
29 -14 160 -14 l160 0 0 161 c0 147 -2 161 -18 166 -14 3 -17 12 -14 34 2 16
10 29 18 29 8 0 14 9 14 20 0 26 -20 26 -27 0 -8 -30 -29 -18 -25 14 2 20 -2
26 -15 25 -11 0 -13 -3 -5 -6z m-178 -153 c0 -5 -4 -10 -9 -10 -6 0 -13 5 -16
10 -3 6 1 10 9 10 9 0 16 -4 16 -10z m165 -10 c3 -5 -1 -10 -9 -10 -9 0 -16 5
-16 10 0 6 4 10 9 10 6 0 13 -4 16 -10z m45 -56 c0 -8 -4 -12 -10 -9 -5 3 -10
10 -10 16 0 5 5 9 10 9 6 0 10 -7 10 -16z m5 -44 c3 -5 1 -10 -4 -10 -6 0 -11
5 -11 10 0 6 2 10 4 10 3 0 8 -4 11 -10z m9 -44 c-3 -8 -12 -12 -20 -9 -21 8
-17 23 6 23 13 0 18 -5 14 -14z"/>
<path d="M1136 404 c-3 -9 -4 -20 0 -25 3 -5 0 -9 -5 -9 -6 0 -11 -5 -11 -10
0 -6 12 -3 28 7 15 9 28 18 30 19 1 0 0 9 -4 18 -8 21 -30 21 -38 0z"/>
<path d="M1195 380 c-3 -5 -1 -10 4 -10 6 0 11 5 11 10 0 6 -2 10 -4 10 -3 0
-8 -4 -11 -10z"/>
<path d="M1180 350 c0 -5 5 -10 11 -10 5 0 7 5 4 10 -3 6 -8 10 -11 10 -2 0
-4 -4 -4 -10z"/>
<path d="M1300 345 c-10 -12 -10 -15 4 -15 9 0 16 7 16 15 0 8 -2 15 -4 15 -2
0 -9 -7 -16 -15z"/>
<path d="M1337 344 c-11 -11 3 -24 24 -24 18 0 19 2 5 15 -16 17 -20 18 -29 9z"/>
<path d="M1260 310 c-8 -5 -12 -12 -9 -15 4 -3 12 1 19 10 14 17 11 19 -10 5z"/>
<path d="M1130 259 c0 -5 5 -7 10 -4 6 3 10 8 10 11 0 2 -4 4 -10 4 -5 0 -10
-5 -10 -11z"/>
<path d="M1031 224 c0 -11 3 -14 6 -6 3 7 2 16 -1 19 -3 4 -6 -2 -5 -13z"/>
<path d="M3380 221 c0 -5 5 -13 10 -16 6 -3 10 -2 10 4 0 5 -4 13 -10 16 -5 3
-10 2 -10 -4z"/>
<path d="M4470 206 c0 -2 7 -6 15 -10 8 -3 15 -1 15 4 0 6 -7 10 -15 10 -8 0
-15 -2 -15 -4z"/>
<path d="M1091 177 c-8 -15 -20 -27 -28 -27 -7 0 -13 -4 -13 -10 0 -15 12 -12
38 10 13 11 22 27 20 36 -2 13 -6 11 -17 -9z"/>
<path d="M1100 129 c0 -5 5 -7 10 -4 6 3 10 8 10 11 0 2 -4 4 -10 4 -5 0 -10
-5 -10 -11z"/>
<path d="M715 110 c-7 -12 2 -30 15 -30 5 0 8 9 7 20 -1 21 -12 26 -22 10z"/>
<path d="M1026 88 c-20 -47 -20 -54 0 -34 8 9 13 20 10 25 -4 5 -1 11 5 13 7
2 10 11 7 19 -4 9 -11 1 -22 -23z"/>
<path d="M4266 95 c4 -8 8 -15 10 -15 2 0 4 7 4 15 0 8 -4 15 -10 15 -5 0 -7
-7 -4 -15z"/>
<path d="M1060 51 c-6 -12 -7 -21 -1 -21 10 0 24 30 17 37 -2 3 -9 -5 -16 -16z"/>
<path d="M855 51 c-3 -5 -1 -12 5 -16 5 -3 10 1 10 9 0 18 -6 21 -15 7z"/>
<path d="M825 10 c3 -5 8 -10 11 -10 2 0 4 5 4 10 0 6 -5 10 -11 10 -5 0 -7
-4 -4 -10z"/>
<path d="M1030 10 c-9 -6 -10 -10 -3 -10 6 0 15 5 18 10 8 12 4 12 -15 0z"/>
</g>
</svg>
